<svg width="30" height="30" viewBox="0 0 30 30" fill="none" xmlns="http://www.w3.org/2000/svg">
<path d="M9 10V13L11 14" stroke="white" stroke-width="2" stroke-miterlimit="10" stroke-linecap="round" stroke-linejoin="round"/>
<path d="M23 16V12C23 11.448 23.448 11 24 11H26.857L26.519 10.212C26.204 9.477 25.481 9 24.681 9H18V23H21.05C20.966 22.586 20.982 22.137 21.137 21.674C21.399 20.89 22.072 20.27 22.875 20.076C24.527 19.676 26 20.916 26 22.5C26 22.671 25.982 22.838 25.95 23H29V16H23Z" fill="white"/>
<path d="M23.5 25C24.8807 25 26 23.8807 26 22.5C26 21.1193 24.8807 20 23.5 20C22.1193 20 21 21.1193 21 22.5C21 23.8807 22.1193 25 23.5 25Z" stroke="white" stroke-width="2" stroke-miterlimit="10"/>
<path d="M7.5 25C8.88071 25 10 23.8807 10 22.5C10 21.1193 8.88071 20 7.5 20C6.11929 20 5 21.1193 5 22.5C5 23.8807 6.11929 25 7.5 25Z" stroke="white" stroke-width="2" stroke-miterlimit="10"/>
<path d="M28 22H29" stroke="white" stroke-width="2" stroke-miterlimit="10" stroke-linecap="round"/>
<path d="M1 22H3" stroke="white" stroke-width="2" stroke-miterlimit="10" stroke-linecap="round"/>
<path d="M16 5H3C1.895 5 1 5.895 1 7V23H5.05C4.966 22.586 4.982 22.137 5.137 21.674C5.399 20.89 6.072 20.27 6.876 20.076C8.527 19.676 10 20.916 10 22.5C10 22.671 9.982 22.838 9.95 23H18V7C18 5.895 17.105 5 16 5ZM9 18C6.239 18 4 15.761 4 13C4 10.239 6.239 8 9 8C11.761 8 14 10.239 14 13C14 15.761 11.761 18 9 18Z" fill="white"/>
</svg>
