<svg width="16" height="15" viewBox="0 0 16 15" fill="none" xmlns="http://www.w3.org/2000/svg">
<path d="M6.24984 13.8334C6.572 13.8334 6.83317 13.5722 6.83317 13.2501C6.83317 12.9279 6.572 12.6667 6.24984 12.6667C5.92767 12.6667 5.6665 12.9279 5.6665 13.2501C5.6665 13.5722 5.92767 13.8334 6.24984 13.8334Z" fill="#F15E22" stroke="#F15E22" stroke-width="2" stroke-linecap="round" stroke-linejoin="round"/>
<path d="M12.6666 13.8334C12.9888 13.8334 13.2499 13.5722 13.2499 13.2501C13.2499 12.9279 12.9888 12.6667 12.6666 12.6667C12.3444 12.6667 12.0833 12.9279 12.0833 13.2501C12.0833 13.5722 12.3444 13.8334 12.6666 13.8334Z" fill="#F15E22" stroke="#F15E22" stroke-width="2" stroke-linecap="round" stroke-linejoin="round"/>
<path d="M1.58325 1.58325H3.91659L5.47992 9.39409C5.53326 9.66265 5.67936 9.9039 5.89265 10.0756C6.10594 10.2473 6.37283 10.3385 6.64659 10.3333H12.3166C12.5903 10.3385 12.8572 10.2473 13.0705 10.0756C13.2838 9.9039 13.4299 9.66265 13.4833 9.39409L14.4166 4.49992H4.49992" stroke="#F15E22" stroke-width="2" stroke-linecap="round" stroke-linejoin="round"/>
</svg>
