<svg width="23" height="23" viewBox="0 0 23 23" fill="none" xmlns="http://www.w3.org/2000/svg">
<path fill-rule="evenodd" clip-rule="evenodd" d="M4.79163 5.75C4.79163 5.93878 4.75444 6.1257 4.6822 6.30011C4.60996 6.47451 4.50408 6.63298 4.37059 6.76647C4.23711 6.89995 4.07864 7.00584 3.90423 7.07808C3.72983 7.15032 3.5429 7.1875 3.35413 7.1875C3.16535 7.1875 2.97842 7.15032 2.80402 7.07808C2.62961 7.00584 2.47114 6.89995 2.33766 6.76647C2.20418 6.63298 2.09829 6.47451 2.02605 6.30011C1.95381 6.1257 1.91663 5.93878 1.91663 5.75C1.91663 5.36875 2.06808 5.00312 2.33766 4.73353C2.60724 4.46395 2.97288 4.3125 3.35413 4.3125C3.73537 4.3125 4.10101 4.46395 4.37059 4.73353C4.64018 5.00312 4.79163 5.36875 4.79163 5.75ZM8.62496 4.79167C8.37079 4.79167 8.12704 4.89263 7.94732 5.07236C7.76759 5.25208 7.66663 5.49583 7.66663 5.75C7.66663 6.00417 7.76759 6.24792 7.94732 6.42764C8.12704 6.60737 8.37079 6.70833 8.62496 6.70833H20.125C20.3791 6.70833 20.6229 6.60737 20.8026 6.42764C20.9823 6.24792 21.0833 6.00417 21.0833 5.75C21.0833 5.49583 20.9823 5.25208 20.8026 5.07236C20.6229 4.89263 20.3791 4.79167 20.125 4.79167H8.62496ZM8.62496 10.5417C8.37079 10.5417 8.12704 10.6426 7.94732 10.8224C7.76759 11.0021 7.66663 11.2458 7.66663 11.5C7.66663 11.7542 7.76759 11.9979 7.94732 12.1776C8.12704 12.3574 8.37079 12.4583 8.62496 12.4583H20.125C20.3791 12.4583 20.6229 12.3574 20.8026 12.1776C20.9823 11.9979 21.0833 11.7542 21.0833 11.5C21.0833 11.2458 20.9823 11.0021 20.8026 10.8224C20.6229 10.6426 20.3791 10.5417 20.125 10.5417H8.62496ZM7.66663 17.25C7.66663 16.9958 7.76759 16.7521 7.94732 16.5724C8.12704 16.3926 8.37079 16.2917 8.62496 16.2917H14.375C14.6291 16.2917 14.8729 16.3926 15.0526 16.5724C15.2323 16.7521 15.3333 16.9958 15.3333 17.25C15.3333 17.5042 15.2323 17.7479 15.0526 17.9276C14.8729 18.1074 14.6291 18.2083 14.375 18.2083H8.62496C8.37079 18.2083 8.12704 18.1074 7.94732 17.9276C7.76759 17.7479 7.66663 17.5042 7.66663 17.25ZM3.35413 12.9375C3.73537 12.9375 4.10101 12.786 4.37059 12.5165C4.64018 12.2469 4.79163 11.8812 4.79163 11.5C4.79163 11.1188 4.64018 10.7531 4.37059 10.4835C4.10101 10.214 3.73537 10.0625 3.35413 10.0625C2.97288 10.0625 2.60724 10.214 2.33766 10.4835C2.06808 10.7531 1.91663 11.1188 1.91663 11.5C1.91663 11.8812 2.06808 12.2469 2.33766 12.5165C2.60724 12.786 2.97288 12.9375 3.35413 12.9375ZM4.79163 17.25C4.79163 17.4388 4.75444 17.6257 4.6822 17.8001C4.60996 17.9745 4.50408 18.133 4.37059 18.2665C4.23711 18.3999 4.07864 18.5058 3.90423 18.5781C3.72983 18.6503 3.5429 18.6875 3.35413 18.6875C3.16535 18.6875 2.97842 18.6503 2.80402 18.5781C2.62961 18.5058 2.47114 18.3999 2.33766 18.2665C2.20418 18.133 2.09829 17.9745 2.02605 17.8001C1.95381 17.6257 1.91663 17.4388 1.91663 17.25C1.91663 16.8688 2.06808 16.5031 2.33766 16.2335C2.60724 15.964 2.97288 15.8125 3.35413 15.8125C3.73537 15.8125 4.10101 15.964 4.37059 16.2335C4.64018 16.5031 4.79163 16.8688 4.79163 17.25Z" fill="white"/>
</svg>
