<svg width="23" height="23" viewBox="0 0 23 23" fill="none" xmlns="http://www.w3.org/2000/svg">
<path d="M21.8299 1.17172C20.8278 0.169695 19.3531 -0.229121 17.9813 0.130838C17.6201 0.225578 17.4046 0.596408 17.5013 0.957131L18.067 3.06846L15.9557 2.50271C15.595 2.40613 15.2242 2.62144 15.1294 2.98266C14.7695 4.35462 15.1684 5.82927 16.1704 6.83121C17.2903 7.95111 18.8924 8.26129 20.2809 7.79375C20.485 9.66268 19.7347 11.0745 17.9419 11.7535C17.4718 10.0153 16.0901 8.6478 14.3435 8.19849V7.32934C14.3435 6.95717 14.0418 6.65543 13.6696 6.65543C13.2974 6.65543 12.9957 6.95717 12.9957 7.32934V8.04082H10.0045V7.32934C10.0045 6.95717 9.70279 6.65543 9.33061 6.65543C8.95843 6.65543 8.65669 6.95717 8.65669 7.32934V8.19782C6.9091 8.64627 5.52636 10.0139 5.05571 11.7526C3.25938 11.0713 2.52144 9.6664 2.72224 7.79478C5.76125 8.81532 8.6726 6.03932 7.87074 2.9827C7.776 2.62149 7.40522 2.40618 7.04445 2.50276L4.93317 3.0685L5.49887 0.957176C5.59549 0.596543 5.38014 0.225623 5.01892 0.130883C3.64696 -0.229076 2.17227 0.16974 1.17028 1.17172C-0.488411 2.83042 -0.377679 5.58323 1.46371 7.09737C1.31718 7.85394 1.16804 9.37001 1.90256 10.7659C2.48564 11.8739 3.48749 12.6656 4.88168 13.1207C4.88168 13.9464 4.83937 14.5869 5.15521 15.5017L2.84767 16.7245C2.07869 17.1319 1.60099 17.9257 1.60099 18.7959V20.2171C1.60099 20.5893 1.90274 20.891 2.27491 20.891C2.64709 20.891 2.94883 20.5893 2.94883 20.2171V18.7959C2.94883 18.426 3.15188 18.0886 3.47873 17.9155L5.76296 16.7051C6.1731 17.3016 6.70857 17.8055 7.33114 18.1785L6.09439 18.8338C5.32542 19.2413 4.84772 20.035 4.84772 20.9053V22.3264C4.84772 22.6986 5.14946 23.0003 5.52164 23.0003C5.89382 23.0003 6.19556 22.6986 6.19556 22.3264V20.9053C6.19556 20.5354 6.39861 20.198 6.72546 20.0248L9.01643 18.8108C9.58851 18.9133 9.61955 18.8894 13.0926 18.8894C13.3956 18.8894 13.6924 18.8625 13.9807 18.8108L16.2717 20.0248C16.5986 20.198 16.8016 20.5354 16.8016 20.9053V22.3264C16.8016 22.6986 17.1034 23.0003 17.4755 23.0003C17.8477 23.0003 18.1495 22.6986 18.1495 22.3264V20.9053C18.1495 20.035 17.6718 19.2413 16.9028 18.8338L15.666 18.1785C16.2886 17.8055 16.8241 17.3016 17.2342 16.7051L19.5184 17.9155C19.8453 18.0886 20.0483 18.426 20.0483 18.7959V20.2171C20.0483 20.5893 20.35 20.891 20.7222 20.891C21.0944 20.891 21.3961 20.5893 21.3961 20.2171V18.7959C21.3961 17.9257 20.9184 17.1319 20.1495 16.7245L17.842 15.5018C18.1561 14.592 18.1155 13.9545 18.1155 13.1216C20.9553 12.1959 22.0634 9.81882 21.5363 7.09737C23.3745 5.58588 23.4915 2.83343 21.8299 1.17172ZM3.99861 1.34813L3.32901 3.84709C3.19482 4.34783 3.65433 4.80653 4.1544 4.67248L6.65331 4.00288C6.64716 6.35665 3.79466 7.54942 2.1233 5.8781C0.460383 4.21514 1.63581 1.35411 3.99861 1.34813ZM13.0927 17.5416H9.90453C7.87811 17.5416 6.22952 15.8929 6.22952 13.8665V13.0637C6.22952 11.0373 7.87815 9.38865 9.90453 9.38865H13.0927C15.1191 9.38865 16.7677 11.0373 16.7677 13.0637V13.8665C16.7677 15.8929 15.1191 17.5416 13.0927 17.5416ZM20.8767 5.8781C19.2053 7.54964 16.3529 6.35625 16.3468 4.00288L18.8457 4.67248C19.3462 4.80658 19.8052 4.34743 19.6711 3.84709L19.0015 1.34813C21.3625 1.35424 22.5407 4.21415 20.8767 5.8781Z" fill="#5A6C7D" stroke="#5A6C7D" stroke-width="0.5"/>
</svg>
