<svg width="28" height="28" viewBox="0 0 28 28" fill="none" xmlns="http://www.w3.org/2000/svg">
<g clip-path="url(#clip0_264_760)">
<path d="M27.9987 18.2746C27.9439 17.3746 27.037 16.7081 24.9722 16.1821C23.8682 15.9008 22.4902 15.6687 20.9137 15.4953C23.5381 14.7932 25.4941 13.6682 26.6523 12.1757C27.6113 10.9401 28.0087 9.46381 27.8019 7.90666C27.4453 5.22197 25.9615 3.87518 24.7795 3.21807C22.8159 2.12653 20.2324 2.11193 17.8682 3.1789C17.1248 3.51457 16.0512 4.08981 14.8083 4.75591C12.1639 6.17287 8.54226 8.11358 6.45394 8.55743C3.36076 9.21464 0.543415 9.98746 0.0523224 12.1969C-0.0833266 12.8071 0.0460658 13.393 0.426445 13.8914C1.31714 15.0588 3.52543 15.5633 5.04576 15.7771C4.02531 15.9452 3.1377 16.1418 2.42047 16.3609C1.39702 16.6735 0.0361823 17.2119 0.036273 18.2746C0.036273 18.5215 0.106999 18.7501 0.250899 18.9632C0.535436 19.4705 1.40618 20.8527 3.11431 22.229C5.02944 23.7721 8.41876 25.6113 13.6901 25.6113C21.3939 25.6113 24.2459 22.6557 27.2653 19.5266C27.2653 19.5264 28.0347 18.8645 27.9987 18.2746ZM22.8321 19.4198C20.4189 19.8223 17.2884 20.0441 14.0176 20.0441C11.7056 20.0441 9.46515 19.9329 7.49724 19.7256C7.24045 19.5383 6.8044 19.1377 6.70202 18.6694C6.63683 18.3711 6.713 18.066 6.9347 17.7364C7.37855 17.0768 9.83718 15.6212 12.7608 15.3065C14.4237 15.1272 16.7914 15.2838 18.6283 17.0443C19.0474 17.4461 19.8176 17.6698 20.7096 17.9289C21.3566 18.1169 22.0255 18.3112 22.5062 18.5605C22.9293 18.7798 23.1588 19.1804 23.1817 19.358C23.1753 19.3598 23.1677 19.3614 23.1595 19.3632C23.0534 19.3821 22.945 19.401 22.8321 19.4198ZM5.7776 14.4959C5.27372 14.4022 4.94566 14.2113 4.90005 13.9851C4.85272 13.75 5.05166 13.3437 5.46658 13.0708C6.08326 12.6654 7.27355 12.3444 8.42466 12.034C9.38046 11.7762 10.2833 11.5328 10.9524 11.2224C11.9771 10.7469 13.2438 10.075 14.5851 9.36344C16.9915 8.08674 19.7192 6.63976 20.8334 6.48498C21.7797 6.35395 22.8636 6.85638 23.3536 7.65468C23.8941 8.53531 23.7227 9.65813 22.8579 10.9016C22.8478 10.9161 22.8369 10.9335 22.8279 10.9487C22.8173 10.9668 21.7389 12.7684 18.8099 14.5648C18.4427 14.6284 18.0637 14.6849 17.6735 14.7344C16.2205 14.0191 14.5079 13.7504 12.6154 13.9543C11.3709 14.0882 10.1341 14.4245 9.05358 14.8552C8.97995 14.8192 6.0975 14.5335 5.80018 14.5012C5.79247 14.4996 5.78521 14.4973 5.7776 14.4959ZM26.585 18.2699C26.4247 18.4105 25.9262 18.7346 24.5101 19.0817C24.38 18.4117 23.8544 17.7272 23.1323 17.3529C22.9352 17.2508 22.7225 17.1598 22.502 17.0755C25.0177 17.4693 26.2604 17.969 26.585 18.2699ZM1.50756 13.0661C1.3691 12.8845 1.33092 12.7127 1.38007 12.492C1.66488 11.2106 3.64086 10.5455 6.73657 9.88772C9.01422 9.40379 12.5831 7.49128 15.4507 5.95462C16.6719 5.30022 17.7264 4.73514 18.4279 4.41851C20.3722 3.54078 22.5528 3.53642 24.1186 4.40672C25.4229 5.13175 26.2303 6.40382 26.4536 8.08556C26.6138 9.29099 26.3192 10.3865 25.5779 11.3417C24.8663 12.2586 23.7683 13.0175 22.3278 13.6016C23.3956 12.595 23.8898 11.8214 23.9885 11.6579C25.5632 9.37903 24.9936 7.72667 24.5126 6.94315C23.7324 5.67226 22.143 4.93036 20.6461 5.13774C19.2938 5.32552 16.6969 6.70332 13.9475 8.16191C12.6229 8.86464 11.3717 9.52846 10.3798 9.98864C9.81651 10.25 8.96834 10.4786 8.0703 10.7208C6.81555 11.0591 5.51818 11.4091 4.71916 11.9344C3.9195 12.4603 3.46286 13.309 3.54238 14.0911C2.63373 13.8467 1.84405 13.5075 1.50756 13.0661ZM5.76536 17.0408C5.36721 17.6623 5.23201 18.3281 5.37591 18.9712C5.4159 19.1502 5.47511 19.3179 5.54674 19.4745C5.43122 19.4565 5.31552 19.4385 5.20299 19.4197C2.4746 18.9646 1.66805 18.4595 1.45234 18.2719C1.75247 18.0097 2.91337 17.4655 5.76536 17.0408ZM13.6901 24.2511C9.80744 24.2511 6.55549 23.2297 4.02468 21.2156C3.66815 20.9319 3.35206 20.6472 3.07341 20.372C3.49804 20.4787 3.96855 20.5796 4.48893 20.6755C7.0406 21.1454 10.4247 21.3784 14.0175 21.4042C19.84 21.4459 24.0908 20.5711 24.3426 20.5166C22.0044 22.658 19.2393 24.2511 13.6901 24.2511Z" fill="#5A6C7D" stroke="#5A6C7D" stroke-width="0.4"/>
</g>
<defs>
<clipPath id="clip0_264_760">
<rect width="28" height="28" fill="white"/>
</clipPath>
</defs>
</svg>
