<svg width="25" height="25" viewBox="0 0 25 25" fill="none" xmlns="http://www.w3.org/2000/svg">
<path d="M4.49766 13.3875C4.06282 12.9591 3.7175 12.4484 3.4818 11.8853C3.2461 11.3222 3.12473 10.7179 3.12473 10.1074C3.12473 9.49697 3.2461 8.89262 3.4818 8.32951C3.7175 7.7664 4.06282 7.25578 4.49766 6.82734C5.38125 5.95661 6.57197 5.46851 7.8125 5.46851C9.05303 5.46851 10.2438 5.95661 11.1273 6.82734C11.5622 7.2555 11.9075 7.76592 12.1432 8.32885C12.3789 8.89178 12.5001 9.49598 12.5 10.1062C12.5 8.91875 12.9578 7.73281 13.8727 6.82734C14.7563 5.95661 15.947 5.46851 17.1875 5.46851C18.428 5.46851 19.6188 5.95661 20.5023 6.82734C20.9372 7.25578 21.2825 7.7664 21.5182 8.32951C21.7539 8.89262 21.8753 9.49697 21.8753 10.1074C21.8753 10.7179 21.7539 11.3222 21.5182 11.8853C21.2825 12.4484 20.9372 12.9591 20.5023 13.3875C19.893 13.9898 17.2258 16.2984 12.5 20.3125C7.77657 16.3008 5.10938 13.9922 4.49766 13.3875V13.3875Z" stroke="#F15E22" stroke-width="2.25" stroke-linecap="round" stroke-linejoin="round"/>
</svg>
