<svg width="24" height="24" viewBox="0 0 24 24" fill="none" xmlns="http://www.w3.org/2000/svg">
<path d="M18.1924 9.2981C17.8212 9.2981 17.5427 9.59434 17.5427 9.94239C17.5427 10.2899 17.8207 10.5867 18.1924 10.5867C18.5482 10.5867 18.8367 10.2982 18.8367 9.94239C18.8367 9.58657 18.5483 9.2981 18.1924 9.2981Z" fill="#5A6C7D" stroke="#5A6C7D" stroke-width="0.4"/>
<path d="M22.9899 13.9653C22.2385 9.06963 19.6424 5.34094 14.7799 4.39937C14.4437 3.74344 13.8199 2.78048 12.7959 2.04711C10.9774 0.744691 8.79354 0.767585 6.65677 1.51299C6.01522 1.73677 6.09971 2.62886 6.73159 2.75626C8.25147 3.09808 8.88967 3.8592 9.25876 4.52226C7.95978 4.81194 7.16816 5.16746 6.25975 5.76781C1.70186 8.77652 0.399141 12.8564 1.23921 16.2811C1.2393 16.2814 1.23943 16.2817 1.23951 16.2821C2.22421 20.2922 6.3411 22.8032 6.51588 22.9081C6.61403 22.967 6.72669 23 6.85293 23C7.03346 23 8.16699 22.9618 8.9538 22.0351C9.6492 21.216 9.84713 19.9967 9.54191 18.4111C9.46459 18.0091 9.03055 17.7765 8.64917 17.9434C8.63852 17.9481 7.56938 18.4089 6.26559 18.3599C4.69923 18.301 3.46778 17.5468 2.60073 16.1169C2.82443 15.728 3.2933 15.0073 3.99532 14.3947C5.27549 13.2774 6.73429 13.0219 8.33128 13.6351C8.46701 13.6889 10.6052 14.5273 13.4008 15.0842C16.2708 15.656 19.687 15.9123 22.3912 14.7544C22.6158 14.6581 22.7756 14.602 22.8965 14.4125C22.9814 14.2795 23.0144 14.1209 22.9899 13.9653ZM8.37758 19.3903C8.43767 20.187 8.30362 20.8016 7.98057 21.1903C7.67174 21.5618 7.24539 21.6686 7.01714 21.6992C6.57997 21.4098 5.33932 20.5328 4.24295 19.2293C5.55357 19.7686 7.02036 19.7583 8.37758 19.3903ZM15.2461 14.0864C14.6934 13.0521 13.8027 10.9642 14.3485 9.03948C14.6598 7.94156 15.4159 7.02985 16.5978 6.32585C19.5358 7.69081 21.0306 10.4626 21.6318 13.6722C19.6874 14.4176 17.3016 14.3667 15.2461 14.0864ZM13.1518 4.1981C12.1786 4.1426 11.294 4.20145 10.5881 4.29062C10.3179 3.72716 9.88673 2.93812 8.96398 2.30968C11.126 2.13121 12.4218 3.19609 13.1518 4.1981ZM8.80385 12.4363C6.53345 11.5282 4.15103 12.0683 2.30564 14.2916C2.32399 12.366 3.10178 9.39642 6.96993 6.84305C7.42974 6.53916 7.81512 6.33225 8.2193 6.17234C9.18437 5.79057 10.3896 5.57899 11.4204 5.5015C12.6565 5.41078 13.9195 5.4872 15.1003 5.79255C12.5385 7.81447 12.3981 10.83 13.6917 13.8251C10.9721 13.2857 8.84586 12.453 8.80385 12.4363Z" fill="#5A6C7D" stroke="#5A6C7D" stroke-width="0.4"/>
</svg>
