<svg width="26" height="26" viewBox="0 0 26 26" fill="none" xmlns="http://www.w3.org/2000/svg">
<path d="M24.9813 2.00153C24.9729 1.44934 24.5338 1.01021 23.9815 1.00182C23.1973 0.989774 21.1142 1.02235 18.7 1.57693C15.6147 2.28573 13.1286 3.56683 11.3108 5.38461C9.86141 6.83399 8.74508 8.72709 7.99268 11.0114C7.43435 12.7065 7.16927 14.3528 7.04393 15.5848L1.66997 15.9532C1.66734 15.9534 1.66481 15.9539 1.66219 15.9542C1.64784 15.9553 1.63364 15.9573 1.61948 15.9593C1.61002 15.9606 1.6005 15.9617 1.59122 15.9634C1.57969 15.9656 1.5683 15.9684 1.55691 15.9711C1.54528 15.9739 1.53366 15.9764 1.52227 15.9797C1.51383 15.9821 1.50567 15.9852 1.49733 15.9879C1.48369 15.9924 1.47 15.9968 1.45683 16.0021C1.45041 16.0047 1.44417 16.0078 1.43784 16.0106C1.42345 16.0169 1.40906 16.0231 1.39523 16.0303C1.38848 16.0338 1.38206 16.0379 1.37541 16.0416C1.36261 16.0488 1.34977 16.0558 1.33753 16.0637C1.32825 16.0697 1.31948 16.0764 1.31053 16.0828C1.30148 16.0893 1.29225 16.0954 1.28353 16.1022C1.27214 16.1112 1.26136 16.121 1.25048 16.1307C1.24472 16.1359 1.23872 16.1406 1.23314 16.146C1.22194 16.1566 1.21148 16.1681 1.20094 16.1795C1.19611 16.1848 1.19105 16.1898 1.1864 16.1951C1.17722 16.2057 1.16873 16.217 1.16015 16.2283C1.15467 16.2354 1.149 16.2424 1.1438 16.2497C1.13714 16.2592 1.13109 16.2691 1.1249 16.279C1.11848 16.2891 1.11192 16.2992 1.10601 16.3097C1.10151 16.3176 1.09753 16.326 1.09331 16.3342C1.08661 16.3473 1.08 16.3604 1.07409 16.3739C1.07311 16.3762 1.0718 16.3783 1.07081 16.3806C1.06856 16.386 1.06701 16.3915 1.0649 16.3969C1.05933 16.4109 1.05398 16.425 1.04934 16.4395C1.04644 16.4484 1.04405 16.4574 1.04151 16.4664C1.03795 16.4793 1.03448 16.4922 1.03162 16.5052C1.02919 16.5163 1.02731 16.5275 1.02544 16.5386C1.02361 16.5497 1.02178 16.5607 1.02047 16.5719C1.01887 16.5853 1.01794 16.5987 1.01709 16.6122C1.01653 16.6214 1.01592 16.6306 1.01573 16.6399C1.0154 16.6551 1.01587 16.6702 1.01653 16.6853C1.01676 16.6911 1.01644 16.6968 1.01686 16.7026C1.01704 16.7052 1.01756 16.7076 1.01775 16.7103C1.01883 16.7236 1.02061 16.7369 1.02244 16.7501C1.02379 16.76 1.02501 16.77 1.02679 16.7797C1.02876 16.7905 1.03125 16.801 1.03369 16.8116C1.03645 16.8237 1.03917 16.8357 1.04255 16.8475C1.04494 16.8558 1.04775 16.8639 1.05042 16.8721C1.05483 16.8856 1.05928 16.899 1.06444 16.912C1.06725 16.9192 1.07048 16.9262 1.07353 16.9332C1.0793 16.9466 1.0852 16.9598 1.09176 16.9726C1.09551 16.98 1.09964 16.9872 1.10367 16.9945C1.11023 17.0063 1.11684 17.018 1.12406 17.0294C1.12926 17.0377 1.13489 17.0457 1.14047 17.0538C1.14717 17.0634 1.15392 17.073 1.16105 17.0824C1.16798 17.0914 1.17525 17.1001 1.18265 17.1088C1.18926 17.1166 1.19592 17.1244 1.20286 17.1318C1.21125 17.1409 1.21992 17.1496 1.22883 17.1583C1.23576 17.165 1.24275 17.1716 1.24997 17.178C1.2592 17.1863 1.26862 17.1943 1.27833 17.2021C1.28644 17.2086 1.29469 17.2148 1.30308 17.221C1.31222 17.2277 1.32145 17.2343 1.33101 17.2406C1.34151 17.2475 1.3523 17.254 1.36317 17.2604C1.37119 17.2651 1.37916 17.2699 1.38741 17.2743C1.40166 17.2819 1.41628 17.2887 1.43105 17.2954C1.43555 17.2974 1.43972 17.2999 1.44427 17.3018L1.45566 17.3067C1.45636 17.3069 1.45706 17.3073 1.45777 17.3075L6.53074 19.4541L8.71493 24.5731C8.71601 24.5756 8.71737 24.578 8.71845 24.5805C8.72183 24.5881 8.72548 24.5956 8.72909 24.6031C8.73495 24.6152 8.74104 24.627 8.74751 24.6386C8.75084 24.6446 8.75417 24.6506 8.75769 24.6565C8.76706 24.6723 8.77695 24.6876 8.78736 24.7023C8.78844 24.7038 8.78937 24.7054 8.79045 24.7069C8.8032 24.7248 8.8168 24.7418 8.83095 24.7581C8.83189 24.7592 8.83287 24.7602 8.83386 24.7613C8.84675 24.7759 8.8602 24.7899 8.87408 24.8032C8.87712 24.8062 8.88022 24.809 8.88331 24.8119C8.8963 24.8239 8.90966 24.8354 8.92334 24.8463C8.9263 24.8487 8.92911 24.8512 8.93206 24.8535C8.94814 24.8658 8.96464 24.8776 8.98166 24.8885C8.98648 24.8916 8.99155 24.8943 8.99647 24.8973C9.00861 24.9047 9.02089 24.9118 9.03341 24.9184C9.04072 24.9223 9.04812 24.926 9.05562 24.9296C9.06734 24.9353 9.07925 24.9405 9.0912 24.9455C9.09809 24.9483 9.1048 24.9514 9.11183 24.9541C9.12983 24.961 9.14811 24.967 9.16662 24.9723C9.17291 24.9741 9.17928 24.9756 9.18561 24.9772C9.20089 24.9812 9.21631 24.9846 9.23178 24.9875C9.23717 24.9885 9.24247 24.9896 9.24791 24.9905C9.28527 24.9966 9.32323 25.0001 9.36153 25.0001C9.39088 25.0001 9.42036 24.9975 9.44984 24.9938C9.46625 24.9917 9.48266 24.9896 9.49864 24.9864C9.50281 24.9856 9.50689 24.9843 9.51106 24.9834C9.52977 24.9793 9.54828 24.9747 9.56638 24.9692C9.57111 24.9678 9.57575 24.9659 9.58044 24.9643C9.59778 24.9586 9.61489 24.9525 9.63167 24.9455C9.63341 24.9448 9.63519 24.9443 9.63697 24.9436C9.64203 24.9414 9.64667 24.9387 9.65164 24.9364C9.66547 24.9301 9.6792 24.9236 9.69252 24.9164C9.70128 24.9117 9.70967 24.9067 9.71816 24.9018C9.72852 24.8956 9.73878 24.8894 9.74877 24.8828C9.75861 24.8763 9.76817 24.8695 9.77764 24.8625C9.78566 24.8566 9.79353 24.8506 9.80132 24.8443C9.8113 24.8363 9.82105 24.8281 9.83052 24.8195C9.83736 24.8134 9.84402 24.8071 9.85063 24.8006C9.85982 24.7917 9.86882 24.7826 9.87749 24.7733C9.88414 24.766 9.89052 24.7586 9.89685 24.7511C9.90449 24.7421 9.91203 24.7331 9.91916 24.7237C9.92614 24.7146 9.93261 24.7053 9.93917 24.6958C9.94489 24.6874 9.95071 24.6792 9.9561 24.6707C9.96317 24.6594 9.96969 24.6478 9.97616 24.6361C9.98024 24.6287 9.98446 24.6214 9.98825 24.6139C9.99477 24.601 10.0006 24.5877 10.0063 24.5745C10.0094 24.5674 10.0126 24.5604 10.0154 24.5532C10.0205 24.5402 10.025 24.5268 10.0293 24.5133C10.032 24.5051 10.0348 24.4971 10.0372 24.4888C10.0405 24.4771 10.0431 24.4651 10.0459 24.4532C10.0483 24.4425 10.0509 24.4319 10.0528 24.421C10.0545 24.4115 10.0557 24.4018 10.057 24.3921C10.0588 24.3786 10.0607 24.3652 10.0618 24.3516C10.0619 24.3494 10.0624 24.3472 10.0626 24.345L10.4335 18.9352C11.6632 18.8082 13.3047 18.5414 14.9936 17.9829C17.2683 17.2306 19.1541 16.1166 20.5989 14.6718C22.4167 12.854 23.6978 10.3679 24.4066 7.28263C24.9608 4.86888 24.9931 2.78528 24.9813 2.00153ZM19.6048 13.6786C16.6342 16.6492 12.1328 17.4041 9.71403 17.5896C9.33491 17.6187 9.05 17.9436 9.06655 18.3207L8.86006 21.3326L7.7119 18.6418C7.70871 18.6343 7.70478 18.6275 7.70135 18.6202C7.69582 18.6083 7.69034 18.5965 7.68415 18.5849C7.67885 18.5751 7.67304 18.5657 7.66732 18.5562C7.66127 18.546 7.65527 18.536 7.64871 18.5262C7.6422 18.5164 7.63521 18.5071 7.62827 18.4978C7.62157 18.4888 7.61487 18.4798 7.6077 18.471C7.60029 18.462 7.59251 18.4535 7.58473 18.4449C7.57709 18.4365 7.5694 18.4281 7.56134 18.42C7.55332 18.4121 7.54502 18.4046 7.53668 18.397C7.52796 18.3891 7.51929 18.3813 7.5101 18.3738C7.50152 18.3668 7.49266 18.3603 7.48376 18.3537C7.47424 18.3466 7.46473 18.3396 7.45479 18.3329C7.44523 18.3266 7.43538 18.3208 7.42554 18.3149C7.4157 18.3091 7.40599 18.3031 7.39577 18.2977C7.38471 18.2918 7.37332 18.2866 7.36198 18.2813C7.35429 18.2777 7.34698 18.2736 7.3391 18.2703L4.70125 17.1538L7.73848 16.9456C7.74565 16.9452 7.75254 16.9438 7.75967 16.9431C7.7712 16.942 7.78263 16.9407 7.79398 16.939C7.80654 16.9371 7.81892 16.9348 7.8312 16.9324C7.84113 16.9303 7.85103 16.9282 7.86082 16.9257C7.87446 16.9224 7.88787 16.9185 7.90114 16.9143C7.90906 16.9118 7.91693 16.9092 7.92476 16.9065C7.93934 16.9013 7.95364 16.8957 7.9677 16.8897C7.97398 16.8869 7.98017 16.8842 7.98635 16.8814C8.00126 16.8744 8.01579 16.867 8.02999 16.8591C8.0352 16.8562 8.0404 16.8533 8.04556 16.8503C8.05995 16.8418 8.07401 16.8329 8.08765 16.8235C8.09253 16.8201 8.0974 16.8167 8.10218 16.8132C8.1154 16.8036 8.12825 16.7936 8.14067 16.7832C8.14573 16.7789 8.15065 16.7747 8.15557 16.7703C8.16715 16.76 8.17835 16.7495 8.18923 16.7385C8.19457 16.7331 8.19978 16.7277 8.20493 16.7221C8.21473 16.7116 8.2242 16.7007 8.23334 16.6896C8.23882 16.6829 8.24417 16.6761 8.24942 16.6692C8.25757 16.6585 8.2654 16.6475 8.27295 16.6364C8.2782 16.6286 8.28331 16.6207 8.28823 16.6127C8.29507 16.6016 8.30164 16.5903 8.30787 16.5788C8.31247 16.5703 8.31692 16.5618 8.32114 16.5531C8.327 16.5412 8.33243 16.5291 8.33759 16.5169C8.34125 16.5082 8.34472 16.4996 8.34804 16.4907C8.35296 16.4777 8.35737 16.4644 8.3615 16.4511C8.36407 16.4427 8.36656 16.4344 8.36881 16.4258C8.37265 16.4115 8.37593 16.3969 8.37884 16.3823C8.38048 16.3742 8.38203 16.3661 8.38339 16.3578C8.38582 16.3428 8.38765 16.3276 8.38915 16.3123C8.38967 16.3072 8.3907 16.3023 8.39107 16.2972C8.57403 13.8712 9.32572 9.35648 12.3042 6.37794C13.4281 5.25406 14.8519 4.35598 16.5547 3.694C17.0178 5.01162 17.7737 6.21683 18.7696 7.21278C19.7655 8.20874 20.9708 8.9646 22.2884 9.42773C21.6268 11.1309 20.7287 12.5547 19.6048 13.6786ZM23.0365 6.96842C22.9476 7.35566 22.8487 7.73188 22.7408 8.0977C21.6267 7.70376 20.6071 7.06293 19.7637 6.2195C18.9203 5.37607 18.2794 4.35654 17.8855 3.24236C18.2513 3.13445 18.6275 3.03564 19.0147 2.94663C20.9578 2.50028 22.6679 2.4145 23.5771 2.40611C23.5687 3.31539 23.4828 5.02559 23.0365 6.96842Z" fill="#5A6C7D" stroke="#5A6C7D" stroke-width="0.4"/>
</svg>
