<svg width="16" height="16" viewBox="0 0 16 16" fill="none" xmlns="http://www.w3.org/2000/svg">
<path fill-rule="evenodd" clip-rule="evenodd" d="M7.99998 3C7.83037 3 7.66355 3.04314 7.51521 3.12536C7.36686 3.20758 7.24187 3.32617 7.15198 3.47L5.26798 6.484L2.65098 4.241C2.49665 4.10865 2.30564 4.02649 2.10343 4.00546C1.90121 3.98443 1.69739 4.02554 1.51913 4.12331C1.34087 4.22107 1.19665 4.37085 1.10568 4.55267C1.01472 4.73449 0.981331 4.93972 1.00998 5.141L2.00998 12.141C2.04393 12.3794 2.16275 12.5975 2.34462 12.7553C2.52649 12.9131 2.75919 13 2.99998 13H13C13.2408 13 13.4735 12.9131 13.6553 12.7553C13.8372 12.5975 13.956 12.3794 13.99 12.141L14.99 5.141C15.0184 4.9399 14.9849 4.73492 14.894 4.55332C14.803 4.37172 14.659 4.22211 14.4809 4.12441C14.3029 4.0267 14.0993 3.98552 13.8973 4.00634C13.6952 4.02717 13.5043 4.10902 13.35 4.241L10.732 6.484L8.84798 3.47C8.75809 3.32617 8.63309 3.20758 8.48475 3.12536C8.3364 3.04314 8.16958 3 7.99998 3ZM7.99998 5.887L9.65198 8.53C9.72821 8.65216 9.82993 8.75642 9.95017 8.83565C10.0704 8.91487 10.2064 8.9672 10.3487 8.98903C10.491 9.01087 10.6364 9.00172 10.7749 8.96219C10.9133 8.92266 11.0416 8.85369 11.151 8.76L12.634 7.488L12.133 11H3.86698L3.36498 7.488L4.84998 8.759C4.95926 8.85274 5.0875 8.92177 5.22593 8.96137C5.36435 9.00098 5.5097 9.01022 5.65203 8.98848C5.79436 8.96674 5.93031 8.91452 6.0506 8.83539C6.17088 8.75626 6.27266 8.65209 6.34898 8.53L7.99998 5.887Z" fill="white"/>
</svg>
