<svg width="16" height="16" viewBox="0 0 16 16" fill="none" xmlns="http://www.w3.org/2000/svg">
<path d="M2.87856 8.56803C2.60026 8.29383 2.37926 7.96704 2.22841 7.60665C2.07756 7.24626 1.99988 6.85947 1.99988 6.46878C1.99988 6.0781 2.07756 5.69131 2.22841 5.33092C2.37926 4.97053 2.60026 4.64373 2.87856 4.36953C3.44406 3.81226 4.20612 3.49988 5.00006 3.49988C5.79399 3.49988 6.55605 3.81226 7.12156 4.36953C7.39987 4.64356 7.62087 4.97022 7.7717 5.3305C7.92252 5.69077 8.00015 6.07746 8.00006 6.46803C8.00006 5.70803 8.29306 4.94903 8.87856 4.36953C9.44406 3.81226 10.2061 3.49988 11.0001 3.49988C11.794 3.49988 12.5561 3.81226 13.1216 4.36953C13.3999 4.64373 13.6209 4.97053 13.7717 5.33092C13.9226 5.69131 14.0002 6.0781 14.0002 6.46878C14.0002 6.85947 13.9226 7.24626 13.7717 7.60665C13.6209 7.96704 13.3999 8.29383 13.1216 8.56803C12.7316 8.95353 11.0246 10.431 8.00006 13C4.97706 10.4325 3.27006 8.95503 2.87856 8.56803V8.56803Z" stroke="#F15E22" stroke-width="2" stroke-linecap="round" stroke-linejoin="round"/>
</svg>
