<svg width="14" height="18" viewBox="0 0 14 18" fill="none" xmlns="http://www.w3.org/2000/svg">
<path d="M13 7.66699C13 12.3337 7 16.3337 7 16.3337C7 16.3337 1 12.3337 1 7.66699C1 6.07569 1.63214 4.54957 2.75736 3.42435C3.88258 2.29913 5.4087 1.66699 7 1.66699C8.5913 1.66699 10.1174 2.29913 11.2426 3.42435C12.3679 4.54957 13 6.07569 13 7.66699Z" stroke="#001A34" stroke-width="1.7" stroke-linecap="round" stroke-linejoin="round"/>
<path d="M7 9.66699C8.10457 9.66699 9 8.77156 9 7.66699C9 6.56242 8.10457 5.66699 7 5.66699C5.89543 5.66699 5 6.56242 5 7.66699C5 8.77156 5.89543 9.66699 7 9.66699Z" stroke="#001A34" stroke-width="1.7" stroke-linecap="round" stroke-linejoin="round"/>
</svg>
