<svg width="254" height="34" viewBox="0 0 254 34" fill="none" xmlns="http://www.w3.org/2000/svg">
<path d="M32.3475 9.55833C32.2061 9.55884 32.0651 9.57229 31.926 9.59866C32.0776 9.21195 32.1362 8.79196 32.0968 8.37578C32.0574 7.95961 31.921 7.56005 31.6998 7.21242C31.4786 6.86479 31.1794 6.57978 30.8285 6.38257C30.4776 6.18537 30.086 6.08204 29.6881 6.08173C29.3895 6.08472 29.0941 6.14682 28.8174 6.2648C28.8325 6.14952 28.8407 6.03333 28.8417 5.91695C28.8394 5.25956 28.5951 4.62865 28.1601 4.15636C27.7251 3.68409 27.1332 3.4071 26.5082 3.38343C25.8833 3.35977 25.2739 3.59126 24.8077 4.02941C24.3415 4.46756 24.0546 5.07837 24.0073 5.73388C23.6215 5.40019 23.147 5.20005 22.6489 5.16085C22.9136 4.82246 23.0906 4.41799 23.163 3.9866C23.2353 3.55519 23.2005 3.11146 23.0619 2.69834C22.9233 2.28523 22.6856 1.91673 22.3718 1.62849C22.058 1.34025 21.6787 1.14205 21.2708 1.05306C20.8627 0.964073 20.4398 0.987314 20.0428 1.12053C19.6458 1.25375 19.2883 1.49244 19.0048 1.8135C18.7214 2.13455 18.5215 2.5271 18.4246 2.95316C18.3277 3.37921 18.3371 3.82433 18.4518 4.24546H18.3578C17.8975 4.2454 17.4467 4.38311 17.0581 4.64247C16.6696 4.90184 16.3593 5.27214 16.1635 5.71008C16.0712 5.07662 15.7552 4.50306 15.2781 4.10397C14.8012 3.70487 14.1986 3.50964 13.5907 3.55726C12.9828 3.60489 12.4144 3.89188 11.999 4.36089C11.5836 4.82989 11.3517 5.44639 11.35 6.08722C11.3492 6.41159 11.4083 6.73304 11.5241 7.03373C11.1221 7.07739 10.7371 7.22659 10.4043 7.46762C10.1357 6.98612 9.72385 6.61083 9.23237 6.39956C8.74088 6.18829 8.19695 6.15276 7.68436 6.29845C7.17177 6.44414 6.71898 6.76297 6.39573 7.20582C6.07247 7.64866 5.89669 8.19096 5.89547 8.74916C5.89574 8.95477 5.92031 9.15956 5.96861 9.35881C5.80086 9.32135 5.62984 9.30233 5.45835 9.30205C5.07046 9.30101 4.68801 9.39783 4.3431 9.58436C3.9982 9.7709 3.7009 10.0417 3.47619 10.3741C3.25148 10.7065 3.10592 11.0907 3.05173 11.4944C2.99754 11.8982 3.0363 12.3097 3.16475 12.6945C3.776 12.9227 4.40154 13.1063 5.0369 13.2437C7.3775 13.7417 11.2002 14.2305 16.2906 14.355C16.135 14.2214 16.0229 14.0402 15.9699 13.8365C15.9168 13.6328 15.9254 13.4168 15.9945 13.2186C16.0637 13.0202 16.1898 12.8495 16.3554 12.7301C16.5212 12.6106 16.7182 12.5485 16.919 12.5522C17.1198 12.5558 17.3146 12.6252 17.4762 12.7507C17.6378 12.8761 17.7582 13.0514 17.8207 13.252C17.8832 13.4527 17.8846 13.669 17.8248 13.8706C17.765 14.0721 17.647 14.2491 17.4871 14.3769C17.9515 14.3843 18.4223 14.388 18.8994 14.388C25.3047 14.388 30.0365 13.8222 32.7619 13.2437C33.4247 13.1003 34.0765 12.9063 34.7124 12.6633C34.7517 12.4788 34.7716 12.2903 34.7717 12.1013C34.7714 11.767 34.7085 11.4359 34.5865 11.1272C34.4646 10.8184 34.286 10.5379 34.0608 10.3017C33.8356 10.0656 33.5685 9.87838 33.2745 9.75086C32.9806 9.62325 32.6655 9.5579 32.3475 9.55833ZM4.92544 12.3155C4.73462 12.3155 4.54808 12.256 4.38942 12.1446C4.23076 12.0331 4.1071 11.8747 4.03407 11.6894C3.96105 11.504 3.94194 11.3001 3.97917 11.1034C4.0164 10.9066 4.10829 10.7259 4.24322 10.5841C4.37815 10.4422 4.55006 10.3457 4.73721 10.3065C4.92437 10.2674 5.11835 10.2874 5.29465 10.3643C5.47095 10.441 5.62163 10.571 5.72764 10.7378C5.83366 10.9046 5.89024 11.1006 5.89024 11.3013C5.89024 11.5702 5.7886 11.8282 5.60766 12.0184C5.42672 12.2086 5.18132 12.3155 4.92544 12.3155ZM6.82021 8.20359C6.81987 8.00323 6.876 7.80724 6.98149 7.64037C7.087 7.47351 7.23715 7.34322 7.413 7.26596C7.58886 7.18871 7.78255 7.16794 7.96963 7.20628C8.1567 7.24461 8.32878 7.34035 8.46416 7.48138C8.59953 7.62242 8.69214 7.80246 8.7303 7.99876C8.76844 8.19507 8.75043 8.39887 8.67853 8.58443C8.60662 8.76999 8.48404 8.92899 8.32627 9.0414C8.16849 9.15381 7.98258 9.21456 7.79199 9.21601C7.66485 9.21697 7.53878 9.19152 7.42103 9.14109C7.30329 9.09067 7.19618 9.01627 7.10587 8.92219C7.01557 8.8281 6.94384 8.71618 6.89482 8.59286C6.84579 8.46954 6.82044 8.33724 6.82021 8.20359ZM9.08419 13.6959C8.8933 13.6959 8.7067 13.6363 8.54799 13.5248C8.3893 13.4133 8.26564 13.2548 8.19267 13.0694C8.1197 12.8839 8.10069 12.6799 8.13806 12.4831C8.17543 12.2863 8.26749 12.1056 8.40259 11.9639C8.5377 11.822 8.70977 11.7256 8.89704 11.6867C9.08431 11.6477 9.27835 11.6681 9.45462 11.7451C9.63085 11.8222 9.78147 11.9525 9.88726 12.1195C9.99305 12.2866 10.0493 12.4828 10.049 12.6835C10.0492 12.8171 10.0243 12.9495 9.97574 13.073C9.92716 13.1965 9.85581 13.3087 9.76579 13.4031C9.67586 13.4976 9.56896 13.5724 9.4514 13.6232C9.33383 13.6741 9.20786 13.7001 9.08071 13.6995L9.08419 13.6959ZM10.2928 9.00181C10.2925 8.80105 10.3488 8.60471 10.4546 8.43763C10.5606 8.27056 10.7112 8.14028 10.8876 8.06328C11.064 7.98629 11.2581 7.96606 11.4454 8.00513C11.6327 8.04421 11.8048 8.14084 11.9398 8.2828C12.0749 8.42475 12.1668 8.60564 12.2039 8.80256C12.2412 8.99947 12.2219 9.20356 12.1487 9.38896C12.0754 9.57434 11.9514 9.73279 11.7925 9.84404C11.6336 9.95538 11.4469 10.0146 11.2558 10.0142C11.1294 10.0147 11.0041 9.98904 10.8871 9.93859C10.77 9.88815 10.6637 9.81398 10.5739 9.72028C10.4841 9.62659 10.4128 9.51527 10.3639 9.39263C10.3152 9.26997 10.2898 9.13842 10.2894 9.00547L10.2928 9.00181ZM12.8075 13.6995C12.6167 13.6995 12.4301 13.64 12.2713 13.5285C12.1127 13.417 11.989 13.2585 11.9161 13.073C11.8431 12.8876 11.8241 12.6835 11.8614 12.4868C11.8988 12.29 11.9909 12.1093 12.126 11.9674C12.261 11.8257 12.4331 11.7293 12.6204 11.6903C12.8077 11.6514 13.0017 11.6718 13.178 11.7488C13.3543 11.8259 13.5048 11.9561 13.6106 12.1232C13.7164 12.2902 13.7727 12.4865 13.7724 12.6871C13.7719 12.9558 13.67 13.2133 13.4891 13.4031C13.3083 13.593 13.0632 13.6995 12.8075 13.6995ZM13.2447 6.54125C13.0543 6.54089 12.8682 6.4812 12.7101 6.36974C12.552 6.25827 12.4288 6.10003 12.3562 5.915C12.2835 5.72997 12.2647 5.52647 12.3021 5.3302C12.3395 5.13393 12.4313 4.95371 12.566 4.8123C12.7008 4.6709 12.8724 4.57465 13.0592 4.53574C13.2459 4.49682 13.4395 4.51697 13.6154 4.59365C13.7912 4.67034 13.9416 4.8001 14.0473 4.96655C14.1531 5.13301 14.2095 5.32867 14.2095 5.52883C14.2095 5.66194 14.1846 5.79373 14.136 5.91669C14.0875 6.03964 14.0165 6.15133 13.9268 6.24537C13.8372 6.3394 13.7308 6.41394 13.6138 6.46471C13.4967 6.51548 13.3713 6.54149 13.2447 6.54125ZM15.4076 10.4793C15.2168 10.4793 15.0303 10.4197 14.8716 10.3083C14.713 10.1969 14.5893 10.0385 14.5163 9.85312C14.4433 9.66778 14.4242 9.46387 14.4614 9.26712C14.4986 9.07038 14.5905 8.88966 14.7254 8.74781C14.8604 8.60597 15.0323 8.50937 15.2194 8.47023C15.4066 8.43109 15.6006 8.45119 15.7769 8.52795C15.9532 8.60472 16.1039 8.73472 16.2099 8.9015C16.3159 9.0683 16.3725 9.26439 16.3725 9.46499C16.3725 9.59815 16.3475 9.73005 16.299 9.85312C16.2505 9.97619 16.1795 10.088 16.0899 10.1822C16.0003 10.2764 15.8939 10.3511 15.7769 10.402C15.6599 10.453 15.5344 10.4793 15.4076 10.4793ZM17.8302 7.23877C17.6397 7.23841 17.4537 7.17873 17.2955 7.06726C17.1374 6.95579 17.0142 6.79755 16.9416 6.61252C16.869 6.42749 16.8502 6.22399 16.8875 6.02773C16.9249 5.83145 17.0168 5.65123 17.1515 5.50982C17.2862 5.36842 17.4578 5.27218 17.6446 5.23326C17.8314 5.19434 18.0249 5.2145 18.2008 5.29118C18.3767 5.36786 18.527 5.49762 18.6327 5.66408C18.7385 5.83053 18.7949 6.02619 18.7949 6.22636C18.7949 6.35947 18.77 6.49127 18.7215 6.61421C18.673 6.73716 18.6019 6.84885 18.5123 6.94289C18.4226 7.03692 18.3162 7.11146 18.1992 7.16223C18.0821 7.213 17.9567 7.23901 17.8302 7.23877ZM19.5229 11.5009C19.3321 11.5009 19.1455 11.4413 18.9868 11.3299C18.8282 11.2184 18.7046 11.06 18.6315 10.8747C18.5585 10.6894 18.5394 10.4854 18.5766 10.2887C18.6139 10.092 18.7057 9.91119 18.8406 9.76936C18.9756 9.62753 19.1475 9.53094 19.3346 9.4918C19.5218 9.45266 19.7158 9.47276 19.8921 9.54952C20.0684 9.62633 20.2191 9.75625 20.3251 9.92309C20.4311 10.0898 20.4877 10.286 20.4877 10.4866C20.4877 10.7556 20.386 11.0135 20.2051 11.2037C20.0242 11.394 19.7787 11.5009 19.5229 11.5009ZM20.2508 3.99464C20.0606 3.99392 19.8746 3.93393 19.7168 3.82224C19.5588 3.71056 19.436 3.55219 19.3636 3.36713C19.2912 3.18208 19.2726 2.97863 19.3102 2.78248C19.3477 2.58633 19.4397 2.40627 19.5746 2.26505C19.7093 2.12383 19.881 2.02777 20.0677 1.989C20.2544 1.95024 20.4479 1.97049 20.6237 2.04723C20.7994 2.12396 20.9496 2.25373 21.0553 2.42014C21.161 2.58655 21.2174 2.78215 21.2174 2.98222C21.2176 3.11564 21.1928 3.24779 21.1443 3.37107C21.0957 3.49436 21.0245 3.60634 20.9347 3.70059C20.8449 3.79485 20.7382 3.86951 20.6209 3.92029C20.5035 3.97107 20.3777 3.99696 20.2508 3.99647V3.99464ZM20.9823 7.13625C20.9819 6.93549 21.0383 6.73915 21.1442 6.57207C21.25 6.405 21.4007 6.27472 21.577 6.19772C21.7534 6.12074 21.9476 6.10049 22.1349 6.13957C22.3222 6.17865 22.4943 6.27529 22.6293 6.41724C22.7643 6.55919 22.8563 6.74008 22.8934 6.937C22.9306 7.13392 22.9113 7.338 22.8381 7.5234C22.7649 7.7088 22.641 7.86719 22.482 7.9785C22.3231 8.08981 22.1363 8.14903 21.9454 8.14867C21.6902 8.14867 21.4455 8.04226 21.265 7.85278C21.0844 7.66332 20.9827 7.40627 20.9823 7.13808V7.13625ZM23.2915 14.0365C23.1008 14.0365 22.9142 13.977 22.7555 13.8655C22.5969 13.754 22.4732 13.5957 22.4001 13.4103C22.3272 13.225 22.3081 13.0211 22.3452 12.8243C22.3825 12.6276 22.4744 12.4468 22.6093 12.305C22.7443 12.1631 22.9161 12.0665 23.1033 12.0274C23.2905 11.9883 23.4844 12.0084 23.6607 12.0851C23.8371 12.1619 23.9877 12.2919 24.0938 12.4587C24.1998 12.6255 24.2563 12.8216 24.2563 13.0222C24.2563 13.1554 24.2314 13.2872 24.1829 13.4103C24.1344 13.5334 24.0633 13.6452 23.9737 13.7394C23.8841 13.8336 23.7778 13.9083 23.6607 13.9592C23.5437 14.0102 23.4182 14.0365 23.2915 14.0365ZM25.2299 10.8308C25.0394 10.8304 24.8534 10.7707 24.6953 10.6592C24.5371 10.5478 24.4139 10.3895 24.3413 10.2045C24.2687 10.0194 24.2499 9.81595 24.2873 9.61973C24.3246 9.42343 24.4165 9.2432 24.5513 9.1018C24.6859 8.96039 24.8576 8.86415 25.0444 8.82523C25.2312 8.78632 25.4247 8.80647 25.6005 8.88316C25.7765 8.95984 25.9267 9.08961 26.0324 9.25605C26.1382 9.4225 26.1947 9.61819 26.1947 9.81835C26.1947 9.95161 26.1696 10.0835 26.121 10.2066C26.0724 10.3296 26.0012 10.4414 25.9113 10.5355C25.8216 10.6296 25.715 10.7041 25.5977 10.7547C25.4805 10.8054 25.3548 10.8312 25.2281 10.8308H25.2299ZM25.8934 6.36733C25.703 6.36696 25.517 6.30728 25.3588 6.19582C25.2006 6.08435 25.0775 5.9261 25.0048 5.74108C24.9322 5.55605 24.9135 5.35254 24.9508 5.15628C24.9881 4.96001 25.08 4.77979 25.2147 4.63838C25.3495 4.49697 25.5211 4.40073 25.7078 4.36181C25.8946 4.32289 26.0882 4.34305 26.2641 4.41973C26.4399 4.49641 26.5903 4.62618 26.696 4.79263C26.8018 4.95908 26.8582 5.15475 26.8582 5.3549C26.8582 5.48817 26.8331 5.62012 26.7846 5.74319C26.736 5.86626 26.6647 5.97804 26.5749 6.07209C26.4851 6.16616 26.3785 6.24065 26.2612 6.29131C26.144 6.34198 26.0184 6.36781 25.8916 6.36733H25.8934ZM27.8787 13.3389C27.6878 13.3389 27.5012 13.2794 27.3426 13.1679C27.1838 13.0563 27.0601 12.8978 26.9872 12.7124C26.9142 12.527 26.8952 12.3229 26.9325 12.1262C26.97 11.9293 27.062 11.7486 27.1971 11.6068C27.3322 11.4651 27.5043 11.3686 27.6915 11.3296C27.8788 11.2908 28.0728 11.3111 28.2491 11.3881C28.4254 11.4652 28.5759 11.5955 28.6817 11.7625C28.7876 11.9295 28.8439 12.1258 28.8435 12.3265C28.8433 12.4597 28.8181 12.5915 28.7694 12.7144C28.7207 12.8374 28.6494 12.9491 28.5597 13.0432C28.47 13.1371 28.3634 13.2116 28.2463 13.2624C28.1292 13.3131 28.0037 13.3391 27.8769 13.3389H27.8787ZM29.1639 9.08785C28.9735 9.08749 28.7875 9.0278 28.6294 8.91635C28.4713 8.80488 28.3481 8.64663 28.2755 8.4616C28.2028 8.27658 28.184 8.07307 28.2213 7.87681C28.2587 7.68053 28.3506 7.50031 28.4853 7.35891C28.6201 7.2175 28.7917 7.12126 28.9785 7.08234C29.1652 7.04342 29.3587 7.06358 29.5347 7.14026C29.7105 7.21694 29.8608 7.3467 29.9666 7.51315C30.0723 7.67961 30.1287 7.87528 30.1287 8.07543C30.1287 8.2087 30.1038 8.34064 30.0551 8.46372C30.0065 8.58679 29.9352 8.69856 29.8455 8.79262C29.7556 8.88668 29.6491 8.96118 29.5319 9.01184C29.4146 9.06251 29.289 9.08834 29.1622 9.08785H29.1639ZM31.825 12.5663C31.6341 12.5663 31.4475 12.5068 31.2888 12.3952C31.1301 12.2837 31.0065 12.1252 30.9334 11.9398C30.8605 11.7544 30.8415 11.5504 30.8789 11.3535C30.9162 11.1567 31.0083 10.976 31.1434 10.8343C31.2785 10.6924 31.4506 10.596 31.6379 10.5571C31.8251 10.5182 32.0192 10.5385 32.1955 10.6155C32.3717 10.6926 32.5223 10.8229 32.6281 10.9899C32.7339 11.157 32.7901 11.3532 32.7898 11.5539C32.7896 11.6869 32.7645 11.8184 32.7159 11.9412C32.6672 12.064 32.5961 12.1754 32.5065 12.2693C32.4169 12.3631 32.3106 12.4375 32.1937 12.4881C32.0767 12.5388 31.9515 12.5647 31.825 12.5645V12.5663Z" fill="#F15E22"/>
<path d="M18.9011 31.1853C16.2051 31.2104 13.5308 30.6767 11.0312 29.6144V29.7042C11.0312 30.4017 11.4648 31.3793 12.0952 31.5935C14.296 32.327 16.5925 32.6933 18.9011 32.6792C21.2099 32.6933 23.5063 32.327 25.7071 31.5935C26.3375 31.3793 26.7711 30.4017 26.7711 29.7042V29.6144C24.2715 30.6767 21.5971 31.2104 18.9011 31.1853Z" fill="#F15E22"/>
<path d="M18.9011 31.1853C16.2051 31.2104 13.5308 30.6767 11.0312 29.6144V29.7042C11.0312 30.4017 11.4648 31.3793 12.0952 31.5935C14.296 32.327 16.5925 32.6933 18.9011 32.6792C21.2099 32.6933 23.5063 32.327 25.7071 31.5935C26.3375 31.3793 26.7711 30.4017 26.7711 29.7042V29.6144C24.2715 30.6767 21.5971 31.2104 18.9011 31.1853Z" fill="#F15E22"/>
<path d="M35.8131 12.2606C35.8049 12.4776 35.7774 12.6934 35.7312 12.905L35.6075 13.4945L35.0659 13.6996C34.3817 13.9605 33.6803 14.1691 32.9674 14.3239C31.3409 14.668 26.7797 15.4644 19.2459 15.4864L19.2947 15.5303L16.6041 15.4644L14.4202 15.4297L14.4637 15.3949C9.5056 15.1788 6.34821 14.6442 4.83135 14.3239C4.14808 14.1751 3.47541 13.977 2.81815 13.7307L2.34446 13.5476L2.17031 13.0478C2.08354 12.7871 2.02511 12.5169 1.99615 12.2423C1.3483 12.5627 1 12.8904 1 13.2437C1 19.9846 7.09533 29.6932 18.8994 29.6932C30.6999 29.6932 36.7987 19.9901 36.7987 13.2437C36.8022 12.9013 36.4539 12.57 35.8131 12.2606Z" fill="#F15E22"/>
<path d="M35.8131 12.2606C35.8049 12.4776 35.7774 12.6934 35.7312 12.905L35.6075 13.4945L35.0659 13.6996C34.3817 13.9605 33.6803 14.1691 32.9674 14.3239C31.3409 14.668 26.7797 15.4644 19.2459 15.4864L19.2947 15.5303L16.6041 15.4644L14.4202 15.4297L14.4637 15.3949C9.5056 15.1788 6.34821 14.6442 4.83135 14.3239C4.14808 14.1751 3.47541 13.977 2.81815 13.7307L2.34446 13.5476L2.17031 13.0478C2.08354 12.7871 2.02511 12.5169 1.99615 12.2423C1.3483 12.5627 1 12.8904 1 13.2437C1 19.9846 7.09533 29.6932 18.8994 29.6932C30.6999 29.6932 36.7987 19.9901 36.7987 13.2437C36.8022 12.9013 36.4539 12.57 35.8131 12.2606Z" fill="#F15E22"/>
<path d="M50.7 9.5432H54.916V16.4792H60.3899L65.1159 9.5432H70.012L63.9939 18.2472L70.454 28.3452H65.4219L60.492 20.3552H54.916V28.3452H50.7V9.5432ZM72.946 9.5432H77.196V28.3452H72.946V9.5432ZM80.5828 9.5432H84.5948L95.8488 22.1912V9.5432H100.065V28.3452H96.0187L84.7648 15.6632V28.3452H80.5828V9.5432ZM114.544 17.4312H123.418V28.3452H120.766L120.188 26.8832C118.329 28.1752 116.142 28.8212 113.626 28.8212C110.588 28.8212 108.072 27.9259 106.078 26.1352C104.106 24.3445 103.12 21.9532 103.12 18.9612C103.12 15.9692 104.106 13.5779 106.078 11.7872C108.072 9.99654 110.588 9.1012 113.626 9.1012C117.796 9.1012 120.947 10.6878 123.078 13.8612L119.712 15.7652C118.941 14.7679 118.091 14.0538 117.162 13.6232C116.255 13.1925 115.054 12.9772 113.558 12.9772C111.654 12.9772 110.135 13.5212 109.002 14.6092C107.891 15.6745 107.336 17.1252 107.336 18.9612C107.336 20.7972 107.891 22.2592 109.002 23.3472C110.135 24.4125 111.654 24.9452 113.558 24.9452C115.96 24.9452 117.887 24.3785 119.338 23.2452V21.1032L114.544 20.9332V17.4312ZM127.001 9.5432H131.251V28.3452H127.001V9.5432ZM134.638 9.5432H138.854V16.4792H144.328L149.054 9.5432H153.95L147.932 18.2472L154.392 28.3452H149.36L144.43 20.3552H138.854V28.3452H134.638V9.5432ZM156.884 9.5432H167.968C170.212 9.5432 172.059 10.2345 173.51 11.6172C174.983 12.9772 175.72 14.7452 175.72 16.9212C175.72 19.7772 174.507 21.8625 172.082 23.1772L174.972 28.3452H170.348L168.138 24.1632H161.134V28.3452H156.884V9.5432ZM161.134 13.4192V20.2872H167.798C168.908 20.2872 169.792 19.9925 170.45 19.4032C171.13 18.8139 171.47 17.9865 171.47 16.9212C171.47 15.8559 171.13 15.0059 170.45 14.3712C169.792 13.7365 168.908 13.4192 167.798 13.4192H161.134ZM188.665 13.3172L185.163 21.7832H193.527L190.127 13.3172H188.665ZM186.013 9.5432H192.915L200.905 28.3452H196.417L195.193 25.4892H183.599L182.375 28.3452H177.819L186.013 9.5432ZM204.144 23.6872C204.733 23.0979 205.447 22.8032 206.286 22.8032C207.124 22.8032 207.838 23.0979 208.428 23.6872C209.017 24.2539 209.312 24.9565 209.312 25.7952C209.312 26.6112 209.017 27.3025 208.428 27.8692C207.838 28.4132 207.124 28.6852 206.286 28.6852C205.447 28.6852 204.733 28.4132 204.144 27.8692C203.577 27.3025 203.294 26.6112 203.294 25.7952C203.294 24.9565 203.577 24.2539 204.144 23.6872ZM212.333 9.5432H223.417C225.661 9.5432 227.508 10.2345 228.959 11.6172C230.432 12.9772 231.169 14.7452 231.169 16.9212C231.169 19.7772 229.956 21.8625 227.531 23.1772L230.421 28.3452H225.797L223.587 24.1632H216.583V28.3452H212.333V9.5432ZM216.583 13.4192V20.2872H223.247C224.357 20.2872 225.241 19.9925 225.899 19.4032C226.579 18.8139 226.919 17.9865 226.919 16.9212C226.919 15.8559 226.579 15.0059 225.899 14.3712C225.241 13.7365 224.357 13.4192 223.247 13.4192H216.583ZM233.778 9.5432H238.028V19.1652C238.028 23.1092 239.819 25.0812 243.4 25.0812C246.981 25.0812 248.772 23.1092 248.772 19.1652V9.5432H253.022V19.1312C253.022 22.2139 252.161 24.6052 250.438 26.3052C248.715 27.9825 246.369 28.8212 243.4 28.8212C240.431 28.8212 238.085 27.9825 236.362 26.3052C234.639 24.6052 233.778 22.2139 233.778 19.1312V9.5432Z" fill="#001A34"/>
</svg>
