<svg width="9" height="14" viewBox="0 0 9 14" fill="none" xmlns="http://www.w3.org/2000/svg">
<path fill-rule="evenodd" clip-rule="evenodd" d="M4.49997 2.05571e-05C5.19143 0.00357667 5.86635 0.211852 6.43955 0.598592C7.01275 0.985333 7.45853 1.53321 7.72067 2.17306C7.98282 2.8129 8.04958 3.51606 7.91251 4.19381C7.77543 4.87155 7.44066 5.49351 6.95047 5.98119C6.46028 6.46888 5.83661 6.80045 5.15817 6.93404C4.47974 7.06764 3.77695 6.99726 3.13846 6.73183C2.49997 6.4664 1.95438 6.01782 1.57059 5.44265C1.18679 4.86747 0.981975 4.19149 0.981966 3.50002C0.982752 3.0391 1.07445 2.58286 1.25174 2.1574C1.42904 1.73194 1.68847 1.34561 2.01523 1.02053C2.34199 0.695445 2.72961 0.43798 3.15598 0.262868C3.58234 0.0877574 4.03905 -0.00155771 4.49997 2.05571e-05ZM4.50797 1.95601C4.80798 1.95898 5.10042 2.05065 5.34842 2.2195C5.59642 2.38836 5.78893 2.62685 5.90164 2.9049C6.01436 3.18295 6.04226 3.48812 5.98184 3.782C5.92143 4.07589 5.77537 4.34532 5.56211 4.55636C5.34884 4.76739 5.07792 4.91062 4.78342 4.96795C4.48892 5.02528 4.18405 4.99416 3.9072 4.87853C3.63034 4.7629 3.39388 4.56792 3.22763 4.31817C3.06139 4.06841 2.97281 3.77505 2.97299 3.47503C2.97458 3.07021 3.13683 2.6826 3.4241 2.39739C3.71138 2.11217 4.10016 1.9527 4.50498 1.95403L4.50797 1.95601ZM4.49997 8.01601C5.17064 8.01108 5.83545 7.89031 6.465 7.65902C6.8159 7.4319 7.18998 7.24283 7.58097 7.09502C7.80096 7.10302 8.16396 7.46801 8.10196 8.41201C8.06696 8.95101 7.08395 9.17302 6.73795 9.37902C6.51205 9.50189 6.2669 9.58543 6.01297 9.62603C6.01297 9.62603 6.85996 10.532 7.07596 10.755C7.51464 11.0746 7.84536 11.5205 8.02396 12.033C7.96689 12.2763 7.84309 12.4988 7.66641 12.6754C7.48974 12.8521 7.26721 12.9759 7.02396 13.033C6.48679 12.7575 6.01068 12.3766 5.62399 11.913C5.04099 11.357 4.50894 10.844 4.50894 10.844C4.50894 10.844 3.96295 11.33 3.39395 11.892C3.01625 12.3575 2.55164 12.745 2.02597 13.033C1.7556 12.9633 1.51132 12.8166 1.32279 12.6107C1.13425 12.4047 1.00957 12.1485 0.963961 11.873C1.29891 11.3166 1.7175 10.8151 2.20499 10.386C2.45407 10.1157 2.72135 9.8628 3.00498 9.62902C2.78165 9.59809 2.56562 9.52765 2.36698 9.42101C1.88598 9.15401 0.855967 8.87401 0.882967 8.37801C0.910967 7.86601 1.04199 7.07802 1.49899 7.07802C1.88944 7.22021 2.26433 7.4018 2.61795 7.62002C3.20817 7.8897 3.85114 8.02432 4.49997 8.01403V8.01601Z" fill="#5A6C7D"/>
</svg>
