<svg width="6" height="10" viewBox="0 0 6 10" fill="none" xmlns="http://www.w3.org/2000/svg">
<path d="M0.254407 8.56726C0.174815 8.64413 0.11133 8.73609 0.0676557 8.83776C0.0239815 8.93943 0.000992978 9.04878 3.14642e-05 9.15943C-0.000930049 9.27007 0.0201545 9.37981 0.0620553 9.48222C0.103956 9.58463 0.165834 9.67768 0.244078 9.75592C0.322321 9.83417 0.415365 9.89604 0.517778 9.93794C0.620192 9.97985 0.729925 10.0009 0.840575 9.99997C0.951224 9.99901 1.06057 9.97602 1.16224 9.93234C1.26391 9.88867 1.35587 9.82518 1.43274 9.74559L5.59941 5.57893C5.75563 5.42265 5.8434 5.21073 5.8434 4.98976C5.8434 4.76879 5.75563 4.55687 5.59941 4.40059L1.43274 0.233926C1.27557 0.0821281 1.06507 -0.00186718 0.846572 3.15022e-05C0.628075 0.00193018 0.419065 0.089571 0.264558 0.244078C0.110051 0.398584 0.0224103 0.607595 0.0205116 0.826092C0.0186129 1.04459 0.102609 1.25509 0.254407 1.41226L3.83191 4.98976L0.254407 8.56726Z" fill="#96A3AE"/>
</svg>
