<svg width="23" height="23" viewBox="0 0 23 23" fill="none" xmlns="http://www.w3.org/2000/svg">
<path fill-rule="evenodd" clip-rule="evenodd" d="M11.4416 2.4689e-06C13.1855 -0.00114597 14.9059 0.398376 16.4682 1.16726C16.707 1.28114 16.9449 1.40605 17.1828 1.5438L16.1275 2.49157L14.5408 0.846749L11.8628 3.24098L10.2724 1.49605L5.28465 6.00255L8.48207 9.53557L7.22495 10.6431L10.3724 14.1817L9.12358 15.2837L13.6244 20.3073L16.296 17.8405L18.6103 20.4827C18.1334 20.8583 17.6286 21.1978 17.1004 21.4984C15.3809 22.4835 13.43 23.0015 11.4444 23C8.3959 22.9618 5.48535 21.7335 3.34325 19.5814C1.20115 17.4292 0 14.5264 0 11.5018C0 8.47726 1.20115 5.57447 3.34325 3.4223C5.48535 1.27014 8.3959 0.0418993 11.4444 0.00367398L11.4416 2.4689e-06ZM9.35131 10.7726L12.0794 8.31045L14.5353 11.0445L11.8081 13.5058L9.35131 10.7726ZM11.2953 15.4968L14.0224 13.0346L16.4793 15.7686L13.7512 18.2317L11.2953 15.4968ZM7.40268 6.10357L10.1308 3.64048L12.5867 6.37542L9.8586 8.83669L7.40268 6.10357ZM12.4089 4.77835L14.4548 2.93241L16.2969 4.98223L14.2511 6.8291L12.4089 4.77835ZM16.0442 13.2348L18.09 11.388L19.9322 13.4387L17.8864 15.2847L16.0442 13.2348ZM17.8438 17.3758L19.8887 15.5299L21.7318 17.5806L19.686 19.4266L17.8438 17.3758ZM18.6677 7.88433L20.0312 6.65368L21.2597 8.02024L19.8961 9.24996L18.6677 7.88433ZM16.9255 3.82139L18.2891 2.59076L19.5175 3.95823L18.153 5.18888L16.9255 3.82139ZM20.408 11.9473L21.7716 10.7166L23 12.0841L21.6355 13.3156L20.408 11.9473ZM14.2909 8.90464L16.3367 7.05778L18.1789 9.10762L16.1331 10.9554L14.2909 8.90464Z" fill="#5A6C7D"/>
</svg>
