<svg width="23" height="23" viewBox="0 0 23 23" fill="none" xmlns="http://www.w3.org/2000/svg">
<path d="M14.9593 11.5C14.9584 12.4172 14.5936 13.2965 13.9451 13.9451C13.2965 14.5936 12.4172 14.9584 11.5 14.9593C10.5828 14.9584 9.70347 14.5936 9.05492 13.9451C8.40638 13.2965 8.04161 12.4172 8.04066 11.5C8.04161 10.5828 8.40638 9.70347 9.05492 9.05492C9.70347 8.40638 10.5828 8.04161 11.5 8.04066C12.4172 8.04161 13.2965 8.40638 13.9451 9.05492C14.5936 9.70347 14.9584 10.5828 14.9593 11.5ZM11.5 0C5.15919 0 0 5.15919 0 11.5C0 17.8408 5.15919 23 11.5 23C13.823 23 16.0633 22.3086 17.9781 20.9997L18.0112 20.9767L16.4615 19.1755L16.4357 19.1928C14.9639 20.1402 13.2503 20.6436 11.5 20.6425C6.45869 20.6425 2.3575 16.5413 2.3575 11.5C2.3575 6.45869 6.45869 2.3575 11.5 2.3575C16.5413 2.3575 20.6425 6.45869 20.6425 11.5C20.6425 12.1533 20.5699 12.8146 20.4269 13.4651C20.1379 14.6517 19.3071 15.0154 18.6832 14.9672C18.0557 14.9162 17.3219 14.4692 17.3168 13.3752V11.5C17.3168 8.29222 14.7078 5.68316 11.5 5.68316C8.29222 5.68316 5.68316 8.29222 5.68316 11.5C5.68316 14.7078 8.29222 17.3168 11.5 17.3168C12.2666 17.3187 13.0258 17.1678 13.7334 16.8729C14.441 16.5781 15.0828 16.1453 15.6213 15.5998C15.9337 16.0896 16.356 16.4999 16.8547 16.798C17.3534 17.0961 17.9148 17.2737 18.4942 17.3168C19.4404 17.3906 20.3809 17.1149 21.1377 16.542C21.827 16.0188 22.3416 15.2619 22.6262 14.3527C22.6715 14.2061 22.7549 13.8697 22.7556 13.8676L22.7578 13.8553C22.9253 13.1258 23 12.3984 23 11.5C23 5.15919 17.8408 0 11.5 0Z" fill="#5A6C7D"/>
</svg>
