<svg width="17" height="17" viewBox="0 0 17 17" fill="none" xmlns="http://www.w3.org/2000/svg">
<path d="M9.59742 10.8933L9.5974 10.8933C9.61322 10.9015 9.62984 10.9101 9.64703 10.9189L10.4932 10.0767C10.4932 10.0766 10.4933 10.0766 10.4934 10.0765C10.8603 9.71019 11.3076 9.50143 11.7894 9.50143C12.2749 9.50143 12.7201 9.71376 13.0753 10.0821L14.8126 11.8232C14.8128 11.8234 14.8131 11.8237 14.8133 11.8239C15.1817 12.1885 15.3899 12.639 15.3899 13.1224C15.3899 13.601 15.1864 14.0527 14.8276 14.4255C14.8275 14.4256 14.8274 14.4257 14.8273 14.4258L14.6112 14.2178C14.4748 14.3603 14.3353 14.4964 14.199 14.6262L9.59742 10.8933ZM9.59742 10.8933L9.59316 10.8912M9.59742 10.8933L9.59316 10.8912M9.59316 10.8912C9.47643 10.8329 9.38226 10.7856 9.30456 10.7376C8.39838 10.1626 7.56987 9.41073 6.76985 8.42948C6.4466 8.02134 6.21775 7.67422 6.04592 7.33753C6.22598 7.16608 6.39698 6.99279 6.56063 6.82695C6.58329 6.80398 6.60581 6.78116 6.6282 6.75851C6.67328 6.71349 6.71819 6.66784 6.76203 6.62329L6.76252 6.62278C6.80707 6.57751 6.85052 6.53334 6.89381 6.49012C7.27338 6.11109 7.48118 5.65628 7.48118 5.18245C7.48118 4.70861 7.27338 4.2538 6.89381 3.87478L6.02827 3.0105C5.92936 2.91173 5.83139 2.81386 5.74015 2.71669L5.74018 2.71666M9.59316 10.8912L5.74018 2.71666M5.74018 2.71666L5.73687 2.71324M5.74018 2.71666L5.73687 2.71324M5.73687 2.71324C5.54704 2.51737 5.34372 2.31099 5.13245 2.11603C4.77683 1.76627 4.33717 1.5678 3.86329 1.5678C3.38853 1.5678 2.94248 1.76696 2.57773 2.11661L2.57769 2.11657M5.73687 2.71324L2.57769 2.11657M2.57769 2.11657L2.57336 2.12089M2.57769 2.11657L2.57336 2.12089M2.57336 2.12089L2.57018 2.12406L2.56702 2.12722L2.56701 2.12722M2.57336 2.12089L2.56701 2.12722M2.56701 2.12722L2.56608 2.12816M2.56701 2.12722L2.56608 2.12816M2.56608 2.12816L1.48858 3.21359C1.03324 3.66847 0.771148 4.22794 0.714215 4.87107L0.714209 4.87107M2.56608 2.12816L0.714209 4.87107M0.714209 4.87107L0.714057 4.87291M0.714209 4.87107L0.714057 4.87291M0.714057 4.87291C0.632345 5.86563 0.924918 6.77817 1.13762 7.351L0.714057 4.87291ZM13.7583 13.4408C13.7699 13.4262 13.782 13.4136 13.7942 13.4027C13.912 13.2757 13.9384 13.1845 13.9382 13.1263C13.9381 13.0673 13.9106 12.9753 13.782 12.8482L13.7809 12.8472L12.034 11.1028L12.034 11.1028L12.0277 11.0964L12.0179 11.0867L12.0181 11.0864C11.9844 11.0495 11.943 11.0137 11.899 10.9885C11.8557 10.9636 11.8172 10.953 11.7831 10.953C11.749 10.953 11.7071 10.9642 11.6568 10.9926C11.6064 11.0211 11.558 11.0612 11.5163 11.1028L10.432 12.1855L10.4293 12.1882C10.3658 12.2518 10.1259 12.4916 9.73815 12.4916C9.58109 12.4916 9.43403 12.4527 9.29027 12.3809L9.42428 12.1125L9.29027 12.3809C9.27847 12.375 9.26862 12.3694 9.26177 12.3653C9.25516 12.3614 9.24908 12.3576 9.24642 12.3559C9.24621 12.3558 9.24601 12.3557 9.24582 12.3555L9.2399 12.3526L9.22819 12.3453C9.15025 12.297 9.05571 12.2496 8.93835 12.191L9.07236 11.9226L8.93835 12.191L8.93334 12.1885C8.80945 12.1266 8.66491 12.0544 8.52205 11.964L13.7583 13.4408ZM13.7583 13.4408C13.6683 13.5364 13.5766 13.6254 13.4745 13.7246C13.4507 13.7478 13.4262 13.7715 13.4011 13.796C13.1953 13.992 12.979 14.2044 12.7738 14.445C12.5139 14.7204 12.2181 14.8486 11.8053 14.8486C11.7558 14.8486 11.7152 14.8484 11.6794 14.8461L11.6786 14.846C10.7974 14.7897 9.96583 14.4443 9.3163 14.1341C7.56132 13.2856 6.01965 12.0811 4.73722 10.5526C3.67331 9.2721 2.97005 8.09822 2.50546 6.84473L2.50515 6.84389C2.21987 6.08119 2.12536 5.51308 2.16802 4.99223C2.19379 4.69245 2.30576 4.4517 2.51857 4.2392L3.59612 3.16322C3.71557 3.05228 3.80952 3.02258 3.86963 3.02258C3.94915 3.02258 4.0378 3.07385 4.12054 3.15647L4.12054 3.15648L4.12529 3.16122L4.13005 3.16597L4.12993 3.1661L4.13737 3.17303C4.32497 3.34808 4.50451 3.53035 4.69734 3.72921L4.69739 3.72927C4.74751 3.78093 4.79829 3.83244 4.84849 3.88335L4.84929 3.88417C4.89949 3.93508 4.94915 3.98545 4.99869 4.03646L4.99866 4.03649L5.00193 4.03975L5.86746 4.90403C6.007 5.04336 6.03149 5.13285 6.03149 5.18245C6.03149 5.23204 6.007 5.32153 5.86746 5.46087C5.83395 5.49433 5.80225 5.52637 5.77141 5.55752C5.71281 5.61673 5.65735 5.67276 5.59856 5.72945L5.59847 5.72935L5.59232 5.73564C5.32717 6.00671 5.07912 6.25424 4.81089 6.49437L4.80933 6.49577L4.80681 6.49788C4.80059 6.50321 4.78566 6.51599 4.76866 6.53615C4.59693 6.71329 4.51295 6.90412 4.49106 7.09292C4.46951 7.27884 4.5113 7.43864 4.54424 7.54282L4.54421 7.54283L4.54572 7.54736L4.55047 7.56161L4.55523 7.57585L4.55855 7.58579L4.56255 7.59547C4.80124 8.17288 5.13503 8.70963 5.6283 9.33504L5.6393 9.34899L5.64409 9.35378C6.53355 10.4457 7.47669 11.3038 8.52189 11.9639L13.7583 13.4408ZM14.3661 14.8819C14.3794 14.869 14.393 14.8559 14.4066 14.8428L1.13763 7.35101C1.66514 8.77193 2.45164 10.0831 3.61376 11.4782L3.61441 11.479C5.02973 13.1665 6.73422 14.5007 8.68197 15.4409L8.68406 15.4419C9.42041 15.7903 10.4365 16.2198 11.5832 16.2932L11.5832 16.2933L11.5881 16.2935C11.6538 16.2966 11.7305 16.3002 11.8021 16.3002C12.6148 16.3002 13.311 16.0049 13.852 15.4185L13.8807 15.3873L13.885 15.3788C14.0242 15.2122 14.1836 15.0582 14.3661 14.8819ZM14.1724 13.3861C14.1327 13.4644 14.0752 13.543 13.9999 13.6218L13.9961 13.6181V13.3272C14.0223 13.3273 14.0518 13.331 14.0832 13.3408C14.1125 13.3499 14.1434 13.3646 14.1724 13.3861Z" fill="#5A6C7D" stroke="#5A6C7D" stroke-width="0.6"/>
<path d="M9.10727 4.56805L9.05765 4.86392C9.82557 4.9927 10.5237 5.35535 11.0829 5.91372C11.6414 6.47138 12.0019 7.16827 12.1341 7.93607C12.1943 8.2942 12.5043 8.54044 12.8516 8.54044C12.8948 8.54044 12.9342 8.53534 12.9552 8.53264C12.9576 8.53232 12.9598 8.53204 12.9617 8.5318L12.9617 8.532L12.9725 8.53025C13.3751 8.46506 13.6364 8.08559 13.5726 7.69215L13.5726 7.69215L13.5722 7.68979C13.3904 6.62426 12.8852 5.65295 12.1156 4.88446C11.346 4.11599 10.3734 3.61165 9.30659 3.43018L9.30659 3.43018L9.30423 3.42979C8.90923 3.36583 8.53656 3.62781 8.46635 4.02151C8.39683 4.41129 8.65307 4.79842 9.05932 4.8642L9.10727 4.56805ZM9.10727 4.56805C9.93793 4.70735 10.6925 5.09992 11.2949 5.70143C11.8973 6.30294 12.2872 7.05641 12.4299 7.88587L9.25628 3.72594C9.02167 3.68795 8.8029 3.84307 8.76169 4.07418C8.72047 4.30529 8.87265 4.53006 9.10727 4.56805Z" fill="#5A6C7D" stroke="#5A6C7D" stroke-width="0.6"/>
<path d="M8.58666 1.30208L8.5867 1.30209C8.65589 0.914142 9.02496 0.640529 9.42476 0.710933C11.141 1.00332 12.703 1.81144 13.9448 3.05148C15.1867 4.29152 15.9961 5.85135 16.2889 7.56535C16.3589 7.9614 16.0882 8.341 15.6893 8.40102L15.6818 8.40215L15.6818 8.40205C15.6799 8.40229 15.6777 8.40257 15.6753 8.40289C15.6543 8.40559 15.6149 8.41069 15.5717 8.41069C15.2243 8.41069 14.9142 8.16428 14.8542 7.80595M8.58666 1.30208L15.15 7.75612M8.58666 1.30208L8.58592 1.30667C8.52148 1.70344 8.7862 2.07467 9.18213 2.14412L9.18212 2.14413L9.18389 2.14442C10.599 2.38399 11.8903 3.05395 12.9186 4.07772M8.58666 1.30208L13.1305 3.86528M14.8542 7.80595C14.8542 7.8058 14.8542 7.80566 14.8541 7.80551L15.15 7.75612M14.8542 7.80595C14.8542 7.80608 14.8543 7.8062 14.8543 7.80633L15.15 7.75612M14.8542 7.80595C14.6142 6.39291 13.9464 5.10409 12.9186 4.07772M15.15 7.75612C14.8996 6.28083 14.2021 4.93534 13.1305 3.86528M12.9186 4.07772C12.9187 4.07777 12.9187 4.07783 12.9188 4.07788L13.1305 3.86528M12.9186 4.07772C12.9186 4.07767 12.9185 4.07762 12.9185 4.07757L13.1305 3.86528" fill="#5A6C7D" stroke="#5A6C7D" stroke-width="0.6"/>
</svg>
