<svg width="17" height="17" viewBox="0 0 17 17" fill="none" xmlns="http://www.w3.org/2000/svg">
<path d="M9.52829 11.0263L9.52828 11.0263C9.55364 11.0395 9.58013 11.0531 9.60725 11.067C9.62967 11.0785 9.65252 11.0902 9.67554 11.1021L10.5992 10.1827C10.9427 9.83962 11.3535 9.65131 11.7894 9.65131C12.2288 9.65131 12.6368 9.84297 12.9682 10.187L14.7071 11.9297C14.7072 11.9299 14.7074 11.93 14.7075 11.9301C15.0518 12.2707 15.2399 12.6843 15.2399 13.1223C15.2399 13.5563 15.0556 13.9722 14.7192 14.3217C14.5809 14.4663 14.4398 14.6039 14.3028 14.7343M9.52829 11.0263L14.199 14.6261M9.52829 11.0263L9.52616 11.0253M9.52829 11.0263L9.52616 11.0253M14.3028 14.7343C14.3027 14.7345 14.3026 14.7346 14.3024 14.7347L14.199 14.6261M14.3028 14.7343C14.303 14.7342 14.3031 14.734 14.3033 14.7339L14.199 14.6261M14.3028 14.7343C14.2886 14.7481 14.2744 14.7618 14.2603 14.7754C14.0775 14.9519 13.9109 15.1129 13.7651 15.2882M14.199 14.6261C14.1842 14.6404 14.1694 14.6546 14.1547 14.6688C13.9712 14.846 13.7968 15.0144 13.6442 15.1991M13.7651 15.2882C13.7694 15.2821 13.774 15.2748 13.7783 15.2662L13.6442 15.1991M13.7651 15.2882C13.7633 15.2904 13.7615 15.2925 13.7598 15.2947L13.7594 15.2944L13.7576 15.2981C13.757 15.2989 13.7563 15.2996 13.7557 15.3003C13.7543 15.302 13.7529 15.3036 13.7517 15.3049C13.7502 15.3066 13.7488 15.308 13.7478 15.3091L13.7442 15.3127L13.7488 15.3076C13.7515 15.3045 13.7551 15.2999 13.7589 15.2939M13.7651 15.2882L13.7589 15.2939M13.6442 15.1991L13.7123 15.2554L13.7589 15.2939M13.6442 15.1991L13.7589 15.2939M9.52616 11.0253C9.41072 10.9676 9.30978 10.9171 9.22499 10.8646C8.30264 10.2795 7.46194 9.51576 6.65292 8.52332C6.29303 8.06899 6.04513 7.68499 5.86221 7.30448C6.06978 7.11067 6.26553 6.91231 6.454 6.72133C6.47673 6.6983 6.49936 6.67537 6.52189 6.65256C6.56664 6.60788 6.6113 6.56248 6.65542 6.51764L6.65559 6.51746C6.70006 6.47226 6.74398 6.42763 6.78782 6.38385C7.14406 6.02813 7.33118 5.60998 7.33118 5.18232C7.33118 4.75467 7.14406 4.33652 6.78782 3.9808L5.92228 3.11652C5.82369 3.01806 5.72397 2.91848 5.6308 2.81923L5.63081 2.81922M9.52616 11.0253L5.63081 2.81922M5.63081 2.81922L5.62916 2.81751M5.63081 2.81922L5.62916 2.81751M5.62916 2.81751C5.43914 2.62145 5.23761 2.41695 5.02894 2.2245C4.69739 1.89767 4.29366 1.71768 3.86329 1.71768C3.43251 1.71768 3.02243 1.89799 2.68153 2.22477L2.68151 2.22475M5.62916 2.81751L2.68151 2.22475M2.68151 2.22475L2.67935 2.22691M2.68151 2.22475L2.67935 2.22691M2.67935 2.22691L2.67617 2.23008L2.673 2.23324L2.673 2.23324M2.67935 2.22691L2.673 2.23324M2.673 2.23324L2.67254 2.23371M2.673 2.23324L2.67254 2.23371M2.67254 2.23371L1.59505 3.31913C1.59497 3.31921 1.59489 3.31929 1.59481 3.31937C1.16423 3.74943 0.917461 4.2761 0.86363 4.88417L0.863627 4.88417M2.67254 2.23371L0.863627 4.88417M0.863627 4.88417L0.863552 4.88509M0.863627 4.88417L0.863552 4.88509M0.863552 4.88509C0.78465 5.84367 1.06727 6.7305 1.27824 7.29867L0.863552 4.88509ZM13.8729 13.5378C13.8735 13.537 13.8741 13.5362 13.8746 13.5355C13.8821 13.5256 13.8903 13.5175 13.8983 13.5108C14.0364 13.364 14.0885 13.2361 14.0882 13.1258C14.088 13.0136 14.0334 12.8857 13.8874 12.7414L13.8869 12.7409L12.14 10.9965L12.14 10.9965L12.1337 10.9902L12.1288 10.9853L12.1289 10.9852C12.0417 10.8897 11.9173 10.8029 11.7831 10.8029C11.6456 10.8029 11.5114 10.8956 11.4103 10.9965L10.3261 12.0792L10.3245 12.0808C10.2658 12.1394 10.0635 12.3415 9.73815 12.3415C9.60731 12.3415 9.48305 12.3094 9.35727 12.2466C9.34342 12.2397 9.33092 12.2317 9.32584 12.2285C9.32028 12.2251 9.31869 12.2242 9.3187 12.2242L9.30688 12.2183L9.30721 12.2177C9.22227 12.1651 9.1211 12.1144 9.00535 12.0566L9.00267 12.0553C8.87746 11.9928 8.73863 11.9235 8.60222 11.8371C8.6022 11.8371 8.60217 11.8371 8.60214 11.837L8.68239 11.7103L13.8729 13.5378ZM13.8729 13.5378C13.7785 13.6384 13.6823 13.7319 13.578 13.8331C13.5542 13.8562 13.5299 13.8798 13.5052 13.9039C13.505 13.9041 13.5048 13.9043 13.5046 13.9045L13.6093 14.0119C13.4032 14.2082 13.194 14.414 12.9974 14.6451M13.8729 13.5378L11.6595 15.1453C11.707 15.1484 11.7577 15.1484 11.8053 15.1484C12.2999 15.1484 12.6772 14.987 12.9974 14.6451M12.9974 14.6451L12.8879 14.5425C12.8871 14.5434 12.8863 14.5442 12.8855 14.5451C12.8847 14.546 12.8839 14.5469 12.8831 14.5479L12.9974 14.6451ZM14.0921 13.5137C14.0646 13.5503 14.0332 13.587 13.998 13.6237L13.9961 13.6218V13.4771C14.0089 13.4772 14.0232 13.4791 14.0385 13.4839C14.0563 13.4894 14.0751 13.499 14.0921 13.5137ZM9.25136 14.2692C7.47664 13.4112 5.91795 12.1932 4.62205 10.6486C3.54953 9.35776 2.83647 8.16931 2.36481 6.89674L2.36466 6.89632C2.07459 6.12082 1.97344 5.52968 2.01855 4.97959C2.04728 4.64449 2.1746 4.37057 2.41258 4.13293L3.49198 3.0551C3.62953 2.92671 3.75891 2.87246 3.86963 2.87246C4.00926 2.87246 4.13443 2.95824 4.22653 3.05021L4.33252 2.94407L4.22653 3.05021L4.23128 3.05496L4.23604 3.05971L4.23598 3.05977L4.2397 3.06324C4.4302 3.24099 4.61191 3.42552 4.80503 3.62467L4.80505 3.6247C4.85468 3.67586 4.90504 3.72694 4.95531 3.77792L4.95622 3.77885C5.00632 3.82966 5.05634 3.88039 5.1063 3.93184L5.10629 3.93185L5.10792 3.93348L5.97345 4.79776C6.12724 4.95132 6.18149 5.0768 6.18149 5.18233C6.18149 5.28785 6.12724 5.41333 5.97345 5.56689C5.94133 5.59897 5.91026 5.63035 5.87969 5.66124C5.82025 5.72129 5.76265 5.77948 5.70267 5.83731L5.70263 5.83726L5.69955 5.84041C5.43382 6.11207 5.18297 6.36247 4.91095 6.60601L4.9108 6.60584L4.90783 6.60881L4.90435 6.61172C4.90007 6.61538 4.89057 6.62357 4.88034 6.63635C4.72757 6.79232 4.6581 6.95447 4.64006 7.11007C4.62215 7.26457 4.65652 7.40027 4.68726 7.49747L4.68724 7.49748L4.688 7.49974L4.69276 7.51399L4.69751 7.52823L4.69716 7.52835L4.70117 7.53804C4.93307 8.09901 5.25848 8.62382 5.74608 9.24203L5.75157 9.249L5.75554 9.25297L9.25136 14.2692Z" fill="#F15E22" stroke="#F15E22" stroke-width="0.3"/>
<path d="M9.10719 4.56805L9.08238 4.71599C9.88168 4.85002 10.608 5.22764 11.1888 5.80757C11.7693 6.38715 12.1445 7.11233 12.282 7.91094C12.3295 8.19449 12.5748 8.39044 12.8515 8.39044C12.8844 8.39044 12.9141 8.38664 12.9357 8.38389C12.9382 8.38356 12.9407 8.38325 12.943 8.38296L12.943 8.38306L12.9484 8.38218C13.267 8.33059 13.4754 8.03005 13.4244 7.71619L13.4244 7.71619L13.4242 7.71501C13.2477 6.68046 12.7574 5.73734 12.0095 4.99061C11.2617 4.24388 10.3173 3.75427 9.28136 3.57806L9.28136 3.57806L9.28018 3.57787C8.96537 3.52689 8.66966 3.73544 8.61394 4.04784C8.55858 4.35829 8.76279 4.66424 9.08322 4.71613L9.10719 4.56805ZM9.10719 4.56805C9.93786 4.70735 10.6924 5.09992 11.2948 5.70143C11.8972 6.30294 12.2872 7.05641 12.4298 7.88587L9.2562 3.72594C9.02159 3.68795 8.80283 3.84307 8.76161 4.07418C8.7204 4.30529 8.87258 4.53006 9.10719 4.56805Z" fill="#F15E22" stroke="#F15E22" stroke-width="0.3"/>
<path d="M15.0022 7.78102C15.0496 8.06466 15.295 8.26069 15.5717 8.26069C15.6046 8.26069 15.6344 8.25689 15.6559 8.25414C15.6585 8.25381 15.6609 8.2535 15.6632 8.25321L15.6632 8.25325L15.667 8.25269C15.9822 8.20527 16.1968 7.90467 16.1412 7.59109C15.8537 5.9078 15.059 4.376 13.8389 3.15763C12.6187 1.93927 11.0848 1.14582 9.39921 0.858736C9.08356 0.802913 8.7896 1.01888 8.7344 1.32842L8.73438 1.32842L8.73401 1.33072C8.68277 1.64624 8.8928 1.94107 9.20807 1.99638L9.20807 1.99638L9.20895 1.99653C10.6552 2.24135 11.9745 2.92614 13.0245 3.97143C14.0742 5.01965 14.7569 6.33683 15.0022 7.78102ZM15.0022 7.78102C15.0021 7.78095 15.0021 7.78088 15.0021 7.78081L15.1501 7.75612L15.0022 7.78122C15.0022 7.78115 15.0022 7.78109 15.0022 7.78102Z" fill="#F15E22" stroke="#F15E22" stroke-width="0.3"/>
</svg>
