<svg width="25" height="26" viewBox="0 0 25 26" fill="none" xmlns="http://www.w3.org/2000/svg">
<path fill-rule="evenodd" clip-rule="evenodd" d="M20.8127 17.9618C20.6338 17.0495 20.1562 16.2218 19.4545 15.6083C19.2131 15.3739 18.9386 15.176 18.6396 15.0208C18.4873 14.9313 18.327 14.8561 18.1606 14.7965C17.7329 14.613 17.2667 14.5363 16.8024 14.573C17.1643 14.4433 17.5504 14.3947 17.9333 14.4307C18.2592 14.4761 18.5802 14.5511 18.8922 14.655C19.1494 14.7938 19.4029 14.9334 19.6555 15.0758C20.2139 13.1064 20.1048 11.0088 19.3449 9.10733C18.7318 7.49328 17.7344 6.05126 16.4384 4.9049C15.1232 3.68079 13.4907 2.84635 11.7247 2.49554C10.6981 2.29722 9.64184 2.30673 8.61901 2.52347C7.75268 2.74885 6.93826 3.13863 6.22049 3.6714C5.5547 4.20196 4.99033 4.84748 4.55444 5.57708C4.42631 5.75433 4.31306 5.94179 4.21581 6.13753C4.12527 6.34927 4.03472 6.552 3.93421 6.75383C3.76484 7.20003 3.63252 7.65929 3.53855 8.12701C3.31066 9.16718 3.27263 10.2397 3.42628 11.2933C3.55049 12.2483 3.80704 13.1816 4.18865 14.0666C4.39328 14.4604 4.5807 14.8731 4.80797 15.238C5.03356 15.5972 5.27902 15.9438 5.5432 16.276C6.10471 16.9003 6.73944 17.4554 7.43378 17.9294C9.02256 19.0007 10.8793 19.6116 12.7967 19.6936C12.7985 19.5582 12.7694 19.4242 12.7116 19.3017C12.6781 19.1674 12.6645 19.0124 12.6265 18.8818C12.5898 18.5654 12.5898 18.2458 12.6265 17.9294C12.6933 17.9785 12.743 18.0472 12.7687 18.1258C12.8005 18.1928 12.8492 18.2505 12.9099 18.2934C12.9844 18.4305 13.0692 18.5618 13.1635 18.6862C13.3507 18.928 13.5689 19.1443 13.8126 19.3296C14.0482 19.5321 14.3036 19.7105 14.575 19.8621C14.8418 20.0309 15.1256 20.1716 15.4216 20.282C16.0772 20.5584 16.7729 20.729 17.4824 20.7874C18.2358 20.8884 18.9637 21.0154 19.6555 21.1794C20.2871 21.3591 20.895 21.6128 21.4664 21.9354C21.7402 22.0864 22.004 22.255 22.2559 22.44C22.3885 22.5195 22.5118 22.6135 22.6236 22.7202C22.7721 22.7787 22.8372 22.9184 22.9857 22.9716C23.4337 23.3781 23.8491 23.8188 24.228 24.2898C24.4089 24.5473 24.5693 24.8184 24.7079 25.1007C24.8111 25.2124 24.841 25.3972 24.9333 25.5206C24.9718 25.5935 24.9942 25.6737 24.999 25.7559C25.0038 25.8381 24.991 25.9204 24.9614 25.9972C24.7523 26.027 24.7948 25.808 24.7079 25.717C24.6291 25.6129 24.5625 25.5002 24.5096 25.3809C24.1791 25.0358 23.883 24.6601 23.5217 24.3438C23.173 24.0204 22.795 23.7297 22.3927 23.4752C21.554 22.8933 20.6171 22.466 19.6265 22.2138C18.4606 21.8958 17.2479 21.782 16.0428 21.8777C15.4762 21.9392 14.9178 22.06 14.3767 22.2381C13.809 22.3632 13.2346 22.4567 12.6564 22.5183C10.3861 22.6358 8.12038 22.2136 6.04663 21.2866C5.15025 20.8916 4.31441 20.3726 3.56389 19.745C3.18604 19.4508 2.83627 19.1227 2.51901 18.7646C2.19573 18.4134 1.91186 18.0282 1.67242 17.6158C1.39965 17.2024 1.15435 16.7717 0.9381 16.3264C0.735651 15.8433 0.565949 15.3472 0.43014 14.8415C0.253067 14.2961 0.139755 13.7323 0.0924217 13.1611C0.0815563 12.9917 0.00187152 12.6673 0.00187152 12.4033C0.0148653 12.3766 0.0246048 12.3485 0.0308575 12.3195C-0.0102858 12.0508 -0.0102858 11.7774 0.0308575 11.5086C0.0345063 10.9147 0.100651 10.3228 0.228233 9.74256C0.327686 9.20907 0.469366 8.68422 0.651971 8.17296C0.820384 7.66838 1.04224 7.21606 1.24415 6.74482C1.37997 6.54299 1.48319 6.30963 1.60633 6.10059C1.71407 5.88073 1.87797 5.71495 1.97394 5.48338C2.05497 5.39513 2.13027 5.30182 2.19939 5.20405C2.24285 5.0788 2.36055 5.02384 2.39677 4.8959C2.48941 4.81751 2.56598 4.72206 2.62225 4.61478C2.71649 4.53808 2.7936 4.44263 2.84861 4.33455C3.18453 4.00657 3.4824 3.64165 3.83642 3.32629C4.19045 3.01093 4.57708 2.71719 4.93745 2.40183C5.16653 2.2937 5.33222 2.12161 5.55768 2.00898C5.72971 1.85311 5.98052 1.77471 6.15075 1.61793C6.6001 1.37862 7.06194 1.16327 7.53428 0.972786C8.01001 0.760376 8.50053 0.58242 9.00201 0.440284C10.1516 0.126233 11.3417 -0.0155954 12.5332 0.0194914C12.5812 0.0257986 12.6066 -0.0273625 12.6174 0.0194914C14.7616 0.0551302 16.8496 0.707263 18.6296 1.89725C20.2036 2.93983 21.4703 4.3807 22.2994 6.07175C23.2736 8.10202 23.5988 10.3807 23.2311 12.6006C22.9894 14.1185 22.4315 15.5693 21.5932 16.8598C21.4808 17.0681 21.3486 17.2651 21.1984 17.4482C21.1467 17.5507 21.0802 17.6451 21.001 17.7284C20.9668 17.7777 20.9289 17.8244 20.8878 17.8681C20.8841 17.8815 20.877 17.8938 20.8671 17.9037C20.8573 17.9137 20.8451 17.9209 20.8317 17.9249C20.8489 17.9852 20.8145 17.9925 20.8127 17.9618ZM20.1354 18.6917C19.8572 18.4876 19.6657 18.1874 19.5985 17.8501C19.5604 17.7222 19.5604 17.586 19.5985 17.4581C19.6156 17.4452 19.6349 17.4355 19.6555 17.4293C19.7037 17.4171 19.7541 17.4158 19.8028 17.4256C19.8516 17.4355 19.8975 17.4561 19.9371 17.4861C20.1018 17.6909 20.2176 17.9303 20.2757 18.1862C20.3053 18.2748 20.3077 18.3701 20.2827 18.4601C20.2578 18.5501 20.2065 18.6307 20.1354 18.6917ZM17.6518 18.215C17.6563 18.1835 17.6798 18.1988 17.6798 18.215C17.9037 18.238 18.1093 18.348 18.2521 18.5212C18.3949 18.6943 18.4632 18.9165 18.4422 19.1395C18.4306 19.2679 18.3774 19.3891 18.2907 19.4849C18.2041 19.5808 18.0885 19.6461 17.9614 19.6711C17.8125 19.6766 17.6648 19.6438 17.5324 19.5759C17.3999 19.5081 17.2874 19.4074 17.2054 19.2835C17.1235 19.1597 17.0751 19.017 17.0647 18.8691C17.0544 18.7213 17.0826 18.5733 17.1465 18.4394C17.205 18.3627 17.2819 18.302 17.3702 18.2627C17.4585 18.2235 17.5554 18.2071 17.6518 18.215Z" fill="#5A6C7D"/>
</svg>
