<svg width="105" height="23" viewBox="0 0 105 23" fill="none" xmlns="http://www.w3.org/2000/svg">
<g opacity="0.75">
<g opacity="0.75">
<path opacity="0.75" d="M0 -0.000102043V15.2317H15.9171L0 -0.000102043Z" fill="#5A6C7D"/>
</g>
</g>
<path d="M0 0.000145912V15.2319L15.9171 0.000145912H0Z" fill="#5A6C7D"/>
<path d="M76.4022 8.52967H71.3087V7.15881C71.3087 5.8895 72.529 4.87404 73.8555 4.87404C75.1819 4.87404 76.4022 5.8895 76.4022 7.15881V8.52967ZM73.8555 3.04623C71.4679 3.04623 69.3987 4.87404 69.3987 7.15881V12.1853H71.3087V10.3575H76.4022V12.1853H78.3123V7.15881C78.3123 4.92482 76.19 3.04623 73.8555 3.04623Z" fill="#5A6C7D"/>
<path d="M102.772 8.52967H97.6782V7.15881C97.6782 5.8895 98.8985 4.87404 100.225 4.87404C101.551 4.87404 102.772 5.8895 102.772 7.15881V8.52967ZM100.225 3.04623C97.8373 3.04623 95.7681 4.87404 95.7681 7.15881V12.1853H97.6782V10.3575H102.772V12.1853H104.682V7.15881C104.682 4.92482 102.612 3.04623 100.225 3.04623Z" fill="#5A6C7D"/>
<path d="M54.4366 10.3575C52.8449 10.3575 51.5715 9.13895 51.5715 7.61577C51.5715 6.09259 52.8449 4.87404 54.4366 4.87404C56.0283 4.87404 57.3017 6.09259 57.3017 7.61577C57.3017 9.13895 55.9752 10.3575 54.4366 10.3575ZM54.4366 3.04623C51.7837 3.04623 49.6615 5.07714 49.6615 7.61577C49.6615 10.1544 51.7837 12.1853 54.4366 12.1853C57.0894 12.1853 59.2117 10.1544 59.2117 7.61577C59.2117 5.12791 57.0364 3.04623 54.4366 3.04623Z" fill="#5A6C7D"/>
<path d="M46.0535 10.3575H43.2415V8.52967H46.0535C46.5841 8.52967 47.0086 8.93585 47.0086 9.44358C47.0086 9.95131 46.5841 10.3575 46.0535 10.3575ZM43.2946 4.87404H45.1516C45.6821 4.87404 46.1066 5.28023 46.1066 5.78795C46.1066 6.29568 45.6821 6.70186 45.1516 6.70186H43.2946V4.87404ZM47.5922 7.15881C47.8044 6.75263 47.9636 6.29568 47.9636 5.78795C47.9636 4.26477 46.6902 3.04623 45.0985 3.04623H41.3315V12.1853H46.0535C47.6453 12.1853 48.9186 10.9668 48.9186 9.44358C48.9186 8.4789 48.3881 7.61577 47.5922 7.15881Z" fill="#5A6C7D"/>
<path d="M35.4952 10.3575C33.9035 10.3575 32.6301 9.13895 32.6301 7.61577C32.6301 6.09259 33.9035 4.87404 35.4952 4.87404C37.0869 4.87404 38.3603 6.09259 38.3603 7.61577C38.3603 9.13895 37.0338 10.3575 35.4952 10.3575ZM35.4952 3.04623C32.8423 3.04623 30.72 5.07714 30.72 7.61577C30.72 10.1544 32.8423 12.1853 35.4952 12.1853C38.148 12.1853 40.2703 10.1544 40.2703 7.61577C40.2703 5.12791 38.095 3.04623 35.4952 3.04623Z" fill="#5A6C7D"/>
<path d="M84.3077 6.75264H82.0793C81.5487 6.75264 81.1243 6.34646 81.1243 5.83873C81.1243 5.33101 81.5487 4.92482 82.0793 4.92482H85.5811L86.8545 3.09701H82.0793C80.4876 3.09701 79.2142 4.31555 79.2142 5.83873C79.2142 7.26037 80.3284 8.42814 81.761 8.58045H83.9894C84.5199 8.58045 84.9444 8.98664 84.9444 9.49436C84.9444 10.0021 84.5199 10.4083 83.9894 10.4083H80.4876L79.2142 12.2361H83.9894C85.5811 12.2361 86.8545 11.0175 86.8545 9.49436C86.9075 8.02196 85.7403 6.90496 84.3077 6.75264Z" fill="#5A6C7D"/>
<path d="M90.0379 3.04623C88.4462 3.04623 87.1729 4.26477 87.1729 5.78795C87.1729 7.20959 88.287 8.37736 89.7196 8.52967H91.948C92.4786 8.52967 92.903 8.93585 92.903 9.44358C92.903 9.95131 92.4786 10.3575 91.948 10.3575H88.4462L87.1729 12.1853H91.948C93.5397 12.1853 94.8131 10.9668 94.8131 9.44358C94.8131 8.02195 93.6989 6.85418 92.2663 6.70186H90.0379C89.5074 6.70186 89.0829 6.29568 89.0829 5.78795C89.0829 5.28023 89.5074 4.87404 90.0379 4.87404H93.5397L94.8131 3.04623H90.0379Z" fill="#5A6C7D"/>
<path d="M68.3375 3.04623L64.4113 7.00649L68.3906 12.1853H66.1622L63.1379 8.32658L62.3421 9.18972V12.1853H60.432V3.04623H62.3421V6.65109L65.7908 3.04623H68.3375Z" fill="#5A6C7D"/>
<path d="M24.194 7.15881H26.7408C27.4305 7.15881 28.0141 6.60031 28.0141 5.94027C28.0141 5.28023 27.4305 4.72173 26.7408 4.72173H24.194V7.15881ZM24.194 12.1853H22.284V3.04623H26.7938C27.5897 3.04623 28.2794 3.30009 28.8631 3.85859C29.4467 4.41709 29.9242 5.17868 29.9242 5.94027C29.9242 6.65109 29.765 7.20959 29.2875 7.76808C28.8631 8.27581 28.3855 8.68199 27.6958 8.83431L30.0834 12.1853H27.855L25.6266 9.0374C25.5205 8.93585 25.4143 8.83431 25.2552 8.83431H24.2471V12.1853H24.194Z" fill="#5A6C7D"/>
<g opacity="0.899994">
<g opacity="0.899994">
<path opacity="0.899994" d="M74.8105 18.6336C74.1208 18.6336 73.4841 19.1921 73.4841 19.8521C73.4841 20.5121 74.0677 21.0706 74.8105 21.0706C75.5002 21.0706 76.1369 20.5121 76.1369 19.8521C76.1369 19.1921 75.5533 18.6336 74.8105 18.6336ZM73.1127 23C72.8474 23 72.6352 22.7969 72.6352 22.543V19.8013C72.6352 18.6843 73.6432 17.7196 74.8636 17.7196C76.0839 17.7196 77.0919 18.6336 77.0919 19.8013C77.0919 20.9183 76.0839 21.883 74.8636 21.883C74.4391 21.883 74.0677 21.7815 73.6432 21.5784L73.5371 21.5276V22.543C73.5371 22.7969 73.3249 23 73.1127 23Z" fill="#5A6C7D"/>
</g>
</g>
<g opacity="0.899994">
<g opacity="0.899994">
<path opacity="0.899994" d="M83.9894 22.9492C83.7241 22.9492 83.5119 22.7461 83.5119 22.4923V21.1214L81.8671 18.6843C81.8141 18.5828 81.8141 18.4812 81.8141 18.3289C81.8671 18.2274 81.9202 18.1258 82.0263 18.075C82.0793 18.0243 82.1855 18.0243 82.2916 18.0243C82.4507 18.0243 82.6099 18.075 82.663 18.2274L83.9894 20.1567L85.3158 18.2274C85.3689 18.075 85.5811 18.0243 85.6872 18.0243C85.7403 18.0243 85.8464 18.075 85.9525 18.075C86.0586 18.1258 86.1117 18.2274 86.1647 18.3289C86.2178 18.4305 86.1647 18.5828 86.1117 18.6843L84.4669 21.0706V22.4415C84.4669 22.7461 84.3077 22.9492 83.9894 22.9492Z" fill="#5A6C7D"/>
</g>
</g>
<g opacity="0.899994">
<g opacity="0.899994">
<path opacity="0.899994" d="M81.1243 22.6954C81.1774 22.8477 81.3896 22.9492 81.5488 22.9492C81.6018 22.9492 81.6549 22.9492 81.7079 22.8984C81.9732 22.7969 82.0793 22.543 81.9732 22.3399L80.0632 18.3289C80.0101 18.2274 79.904 18.1258 79.7979 18.075C79.7448 18.0243 79.6918 18.0243 79.6387 18.0243C79.4795 18.0243 79.2673 18.1258 79.2143 18.2781L77.3042 22.2892C77.1981 22.4923 77.3042 22.7461 77.5695 22.8477C77.6225 22.8984 77.6756 22.8984 77.7287 22.8984C77.8878 22.8984 78.1001 22.7969 78.1531 22.6446L79.6387 19.4967L81.1243 22.6954Z" fill="#5A6C7D"/>
</g>
</g>
<g opacity="0.899994">
<g opacity="0.899994">
<path opacity="0.899994" d="M88.4462 22.9492C87.8626 22.9492 87.2789 22.7461 86.9606 22.4415C86.8545 22.3907 86.8014 22.2384 86.8014 22.1369C86.8014 21.9845 86.8545 21.883 86.9606 21.8322C87.0667 21.7307 87.1728 21.6799 87.332 21.6799C87.4381 21.6799 87.5973 21.7307 87.6503 21.8322C87.8095 21.9845 88.1809 22.0861 88.4462 22.0861C88.9237 22.0861 89.242 21.8322 89.242 21.4768C89.242 21.0199 88.7645 20.8675 88.234 20.766C87.5442 20.6137 86.8014 20.3598 86.8014 19.3951C86.8014 18.6335 87.4912 18.0243 88.4462 18.0243C89.1359 18.0243 89.8257 18.2781 89.8257 18.6843C89.8257 18.9382 89.6134 19.0905 89.4012 19.0905C89.3482 19.0905 89.242 19.0397 89.0829 18.989C88.9237 18.9382 88.7115 18.8366 88.4462 18.8366H88.3401C87.9687 18.8874 87.8095 19.0905 87.8095 19.3444C87.8095 19.7505 88.287 19.8521 88.8176 20.0044H88.8706C89.5604 20.2075 90.3562 20.4106 90.3562 21.3753C90.1971 22.2892 89.4012 22.9492 88.4462 22.9492Z" fill="#5A6C7D"/>
</g>
</g>
<g opacity="0.899994">
<g opacity="0.899994">
<path opacity="0.899994" d="M102.4 22.0861H101.817V18.8874H102.453C103.355 18.8874 104.045 19.5982 104.045 20.4614C104.045 21.3753 103.355 22.0861 102.4 22.0861ZM100.862 22.4923C100.862 22.7461 101.021 22.8984 101.286 22.8984H102.4C103.833 22.8984 105 21.7814 105 20.5121C105 19.192 103.833 18.1258 102.4 18.1258H101.286C101.021 18.1258 100.862 18.2781 100.862 18.532V22.4923Z" fill="#5A6C7D"/>
</g>
</g>
<g opacity="0.899994">
<g opacity="0.899994">
<path opacity="0.899994" d="M91.6827 22.8984C91.4174 22.8477 91.2582 22.6953 91.2582 22.4415V18.4812C91.2582 18.2274 91.4705 18.0243 91.7357 18.0243H93.9111C94.1764 18.0243 94.3355 18.1766 94.3355 18.4304C94.3355 18.6843 94.1764 18.8366 93.9111 18.8366H92.2133V19.8521H93.7519C94.0172 19.8521 94.1764 20.0044 94.1764 20.2583C94.1764 20.5121 94.0172 20.6644 93.7519 20.6644H92.2133V22.0353H93.9111C94.1764 22.0353 94.3355 22.1876 94.3355 22.4415C94.3355 22.6953 94.1764 22.8477 93.9111 22.8477H91.6827V22.8984Z" fill="#5A6C7D"/>
</g>
</g>
<g opacity="0.899994">
<g opacity="0.899994">
<path opacity="0.899994" d="M98.7393 22.7461C98.7923 22.8985 99.0046 22.9492 99.1107 22.9492C99.376 22.9492 99.5882 22.7461 99.5882 22.4923V18.4812C99.5882 18.2274 99.376 18.0243 99.1107 18.0243C98.8454 18.0243 98.6332 18.2274 98.6332 18.4812V21.3245L98.474 21.1722C97.7312 20.1567 96.2456 18.2781 96.1925 18.2274C96.1395 18.1258 95.9803 18.0751 95.8211 18.0751C95.5559 18.0751 95.3436 18.2781 95.3436 18.532V22.543C95.3436 22.7969 95.5559 23 95.8211 23C96.0864 23 96.2987 22.7969 96.2987 22.543V19.6998L98.7393 22.7461Z" fill="#5A6C7D"/>
</g>
</g>
<g opacity="0.899994">
<g opacity="0.899994">
<path opacity="0.899994" d="M23.8757 22.9492C23.2921 22.9492 22.7084 22.7461 22.3901 22.4415C22.284 22.3907 22.2309 22.2384 22.2309 22.1369C22.2309 21.9845 22.284 21.883 22.3901 21.8322C22.4962 21.7307 22.6023 21.6799 22.7615 21.6799C22.8676 21.6799 23.0268 21.7307 23.0798 21.8322C23.239 21.9845 23.6104 22.0861 23.8757 22.0861C24.3532 22.0861 24.6716 21.8322 24.6716 21.4768C24.6716 21.0199 24.194 20.8675 23.6635 20.766C23.0268 20.6137 22.284 20.309 22.284 19.3444C22.284 18.5828 22.9737 17.9735 23.9288 17.9735C24.6185 17.9735 25.3082 18.2274 25.3082 18.6335C25.3082 18.8874 25.096 19.0397 24.8838 19.0397C24.8307 19.0397 24.7246 18.989 24.5654 18.9382C24.3532 18.8874 24.141 18.7859 23.8757 18.7859H23.7696C23.3982 18.8366 23.239 19.0397 23.239 19.2936C23.239 19.6998 23.7165 19.8013 24.2471 19.9536H24.3002C24.9899 20.1567 25.7857 20.3598 25.7857 21.3245C25.6796 22.2892 24.8838 22.9492 23.8757 22.9492Z" fill="#5A6C7D"/>
</g>
</g>
<g opacity="0.899994">
<g opacity="0.899994">
<path opacity="0.899994" d="M32.1526 18.8874V20.4614H33.3729C33.479 20.4614 33.6382 20.4106 33.7443 20.4106C33.8504 20.3598 33.9035 20.309 34.0096 20.2583C34.0627 20.2075 34.1688 20.1059 34.1688 20.0044C34.2218 19.9029 34.2218 19.8013 34.2218 19.6998C34.2218 19.5982 34.1688 19.4967 34.1688 19.3951C34.1157 19.2936 34.0627 19.2428 34.0096 19.1413C33.9566 19.0905 33.8504 18.9889 33.7443 18.9889C33.6382 18.9382 33.5321 18.9382 33.426 18.9382H32.1526V18.8874ZM31.6221 22.8984C31.4629 22.8984 31.3568 22.8477 31.2507 22.7461C31.1445 22.6446 31.0915 22.543 31.0915 22.3907V18.532C31.0915 18.3797 31.1445 18.2781 31.2507 18.1766C31.3568 18.075 31.4629 18.0243 31.6221 18.0243H33.479C33.6913 18.0243 33.9566 18.075 34.1157 18.1766C34.328 18.2274 34.4871 18.3797 34.6463 18.532C34.8055 18.6843 34.9116 18.8366 35.0177 19.0397C35.1238 19.2428 35.1769 19.4459 35.1769 19.649C35.1769 19.9536 35.1238 20.2075 34.9116 20.4614C34.7524 20.7152 34.5402 20.9183 34.2749 21.0199L34.9646 22.2384C35.0177 22.2892 35.0177 22.3907 35.0177 22.4415C35.0177 22.543 34.9646 22.6446 34.8585 22.7461C34.8055 22.8477 34.6463 22.8984 34.5402 22.8984C34.4871 22.8984 34.381 22.8477 34.2749 22.8477C34.2218 22.7969 34.1157 22.7461 34.1157 22.6953L33.2668 21.2229H32.1526V22.4415C32.1526 22.5938 32.0996 22.6953 31.9935 22.7969C31.8873 22.8477 31.7812 22.8984 31.6221 22.8984Z" fill="#5A6C7D"/>
</g>
</g>
<g opacity="0.899994">
<g opacity="0.899994">
<path opacity="0.899994" d="M37.8827 22.8984C37.7236 22.8984 37.6175 22.8477 37.4583 22.7461C37.3522 22.6446 37.2461 22.543 37.193 22.3907L35.8135 18.532C35.8135 18.4812 35.7605 18.4305 35.7605 18.3797C35.7605 18.2274 35.8135 18.1258 35.9196 18.075C36.0257 17.9735 36.1319 17.9227 36.291 17.9227C36.3971 17.9227 36.5033 17.9735 36.5563 18.0243C36.6624 18.0243 36.7155 18.075 36.7155 18.1766L37.8297 21.4768L38.9439 18.1766C38.9969 18.075 39.05 18.0243 39.1031 17.9227C39.1561 17.872 39.2622 17.8212 39.3683 17.8212C39.5275 17.8212 39.6336 17.872 39.7397 17.9735C39.8458 18.1258 39.8989 18.2274 39.8989 18.3289C39.8989 18.3797 39.8989 18.4305 39.8458 18.4812L38.5194 22.3907C38.4664 22.543 38.3603 22.6446 38.2541 22.7461C38.2011 22.8477 38.0419 22.8984 37.8827 22.8984Z" fill="#5A6C7D"/>
</g>
</g>
<g opacity="0.899994">
<g opacity="0.899994">
<path opacity="0.899994" d="M41.4906 22.8984C41.3315 22.8984 41.2253 22.8477 41.1192 22.7461C41.0131 22.6446 40.9601 22.543 40.9601 22.3907V18.3797C40.9601 18.2274 41.0131 18.1258 41.1192 18.0243C41.2253 17.9227 41.3315 17.872 41.4906 17.872C41.6498 17.872 41.7559 17.9227 41.862 18.0243C41.9681 18.1258 42.0212 18.2274 42.0212 18.3797V22.3907C42.0212 22.543 41.9681 22.6446 41.862 22.7461C41.7559 22.8477 41.5967 22.8984 41.4906 22.8984Z" fill="#5A6C7D"/>
</g>
</g>
<g opacity="0.899994">
<g opacity="0.899994">
<path opacity="0.899994" d="M46.8494 21.5784C46.9555 21.5784 47.0617 21.6291 47.1678 21.7307C47.2739 21.7814 47.3269 21.883 47.3269 22.0353C47.3269 22.0861 47.3269 22.1369 47.2739 22.1876C47.2208 22.2384 47.2208 22.2892 47.1678 22.3399C46.9555 22.543 46.6903 22.6954 46.425 22.7969C46.1597 22.8984 45.8413 22.9492 45.523 22.9492C45.1516 22.9492 44.8333 22.8984 44.5149 22.7461C44.1966 22.5938 43.9313 22.4415 43.7191 22.2384C43.5068 21.9845 43.2946 21.7307 43.1885 21.426C43.0293 21.1214 42.9763 20.8168 42.9763 20.4106C42.9763 20.0552 43.0293 19.7505 43.1885 19.4459C43.3477 19.1413 43.5068 18.8874 43.7191 18.6843C43.9313 18.4305 44.1966 18.2781 44.5149 18.1766C44.8333 18.0243 45.1516 17.9735 45.523 17.9735C45.8413 17.9735 46.1066 18.0243 46.3719 18.1258C46.6372 18.2274 46.8494 18.3797 47.0617 18.532C47.1678 18.6335 47.2208 18.7351 47.2208 18.8366C47.2208 18.9382 47.1678 19.0397 47.1147 19.0905C47.0617 19.192 46.9555 19.2428 46.7964 19.2428C46.6903 19.2428 46.5841 19.192 46.5311 19.1413C46.2658 18.8874 45.9475 18.7859 45.523 18.7859C45.3108 18.7859 45.0985 18.8366 44.9394 18.9382C44.7271 19.0397 44.568 19.1413 44.4619 19.2936C44.3557 19.4459 44.1966 19.649 44.0905 19.8013C44.0374 20.0044 43.9313 20.2583 43.9313 20.4614C43.9313 20.7152 43.9843 20.9183 44.0905 21.1214C44.1435 21.3245 44.3027 21.5276 44.4619 21.6291C44.621 21.7814 44.7802 21.883 44.9394 21.9845C45.0985 22.0861 45.3108 22.1369 45.523 22.1369C45.7352 22.1369 45.8944 22.0861 46.1066 21.9845C46.2658 21.9338 46.425 21.7814 46.5841 21.6291C46.6372 21.5784 46.6903 21.5784 46.7433 21.5276C46.7433 21.5784 46.8494 21.5784 46.8494 21.5784Z" fill="#5A6C7D"/>
</g>
</g>
<g opacity="0.899994">
<g opacity="0.899994">
<path opacity="0.899994" d="M49.3962 21.9845H51.5185C51.6246 21.9845 51.7307 22.0353 51.7837 22.086C51.8368 22.1368 51.8899 22.2384 51.8899 22.3399C51.8899 22.4414 51.8368 22.543 51.7837 22.5938C51.7307 22.6445 51.6246 22.6953 51.5185 22.6953H48.9187C48.7595 22.6953 48.6534 22.6445 48.5473 22.543C48.4411 22.4414 48.3881 22.3399 48.3881 22.1876V18.4812C48.3881 18.3289 48.4411 18.2273 48.5473 18.1258C48.6534 18.0242 48.7595 17.9735 48.9187 17.9735H51.5185C51.6246 17.9735 51.7307 18.0242 51.7837 18.075C51.8368 18.1258 51.9429 18.2273 51.9429 18.3289C51.9429 18.4304 51.8899 18.532 51.8368 18.5827C51.7837 18.6335 51.6776 18.6843 51.5715 18.6843H49.4492V19.8013H51.0409C51.1471 19.8013 51.2532 19.852 51.3062 19.9028C51.3593 19.9536 51.4123 20.0551 51.4123 20.1567C51.4123 20.2582 51.3593 20.3598 51.3062 20.4105C51.2532 20.5629 51.1471 20.6136 50.9879 20.6136H49.3962V21.9845Z" fill="#5A6C7D"/>
</g>
</g>
<g opacity="0.899994">
<g opacity="0.899994">
<path opacity="0.899994" d="M61.7585 20.4106V21.9845H63.0318C63.138 21.9845 63.2441 21.9337 63.3502 21.9337C63.4563 21.883 63.5094 21.8322 63.6155 21.7814C63.6685 21.7307 63.7746 21.6291 63.7746 21.5276C63.8277 21.426 63.8277 21.3245 63.8277 21.2229C63.8277 21.1214 63.7746 21.0198 63.7746 20.9183C63.7216 20.8167 63.6685 20.766 63.6155 20.6644C63.5624 20.6137 63.4563 20.5121 63.3502 20.5121C63.2441 20.4613 63.138 20.4613 63.0318 20.4613H61.7585V20.4106ZM61.7585 19.6997H62.9257C63.0318 19.6997 63.138 19.649 63.191 19.5474C63.2441 19.4459 63.2971 19.3951 63.2971 19.2428C63.2971 19.1412 63.2441 19.0397 63.191 18.9889C63.138 18.9382 63.0318 18.8874 62.9257 18.8874H61.7585V19.6997ZM61.2279 22.7969C61.0687 22.7969 60.9626 22.7461 60.8565 22.6446C60.7504 22.543 60.6973 22.4415 60.6973 22.2891V18.4812C60.6973 18.3289 60.7504 18.2273 60.8565 18.1258C60.9626 18.0242 61.0687 17.9735 61.2279 17.9735H62.9788C63.138 17.9735 63.3502 18.0242 63.4563 18.075C63.6155 18.1258 63.7216 18.2273 63.8277 18.3289C63.9338 18.4304 64.0399 18.5827 64.093 18.6843C64.146 18.7858 64.1991 18.9889 64.1991 19.1412C64.1991 19.2936 64.146 19.3951 64.146 19.4967C64.093 19.5982 64.0399 19.7505 63.9869 19.8013C64.1991 19.9536 64.3583 20.1567 64.5174 20.3598C64.6766 20.6137 64.6766 20.8167 64.6766 21.1214C64.6766 21.3752 64.6236 21.5783 64.5174 21.7307C64.4113 21.9337 64.3052 22.0861 64.146 22.2384C63.9869 22.3907 63.8277 22.4922 63.6155 22.5938C63.4032 22.6446 63.191 22.7461 62.9788 22.7461L61.2279 22.7969Z" fill="#5A6C7D"/>
</g>
</g>
<g opacity="0.899994">
<g opacity="0.899994">
<path opacity="0.899994" d="M54.5427 22.0861H53.9591V18.8874H54.5958C55.4977 18.8874 56.1875 19.5982 56.1875 20.4614C56.1344 21.3753 55.3916 22.0861 54.5427 22.0861ZM52.951 22.4923C52.951 22.7461 53.1102 22.8984 53.3755 22.8984H54.4897C55.9222 22.8984 57.0895 21.7814 57.0895 20.5121C57.0895 19.192 55.9222 18.1258 54.4897 18.1258H53.3755C53.1102 18.1258 52.951 18.2781 52.951 18.532V22.4923Z" fill="#5A6C7D"/>
</g>
</g>
<g opacity="0.899994">
<g opacity="0.899994">
<path opacity="0.899994" d="M27.2183 22.8984C26.953 22.8477 26.7938 22.6953 26.7938 22.4415V18.4812C26.7938 18.2274 27.0061 18.0243 27.2714 18.0243H29.4467C29.712 18.0243 29.8711 18.1766 29.8711 18.4304C29.8711 18.6843 29.712 18.8366 29.4467 18.8366H27.7489V19.8521H29.2875C29.5528 19.8521 29.712 20.0044 29.712 20.2583C29.712 20.5121 29.5528 20.6644 29.2875 20.6644H27.7489V22.0353H29.4467C29.712 22.0353 29.8711 22.1876 29.8711 22.4415C29.8711 22.6953 29.712 22.8477 29.4467 22.8477H27.2183V22.8984Z" fill="#5A6C7D"/>
</g>
</g>
<g opacity="0.899994">
<g opacity="0.899994">
<path opacity="0.899994" d="M67.2764 22.9492C67.0111 22.9492 66.7989 22.7461 66.7989 22.4923V21.1214L65.1541 18.7351C65.1011 18.6335 65.1011 18.532 65.1011 18.3797C65.1541 18.2781 65.2072 18.1766 65.3133 18.1258C65.3664 18.075 65.4725 18.075 65.5786 18.075C65.7378 18.075 65.8969 18.1258 65.95 18.2781L67.2764 20.2075L68.6029 18.2781C68.6559 18.1258 68.8681 18.075 68.9743 18.075C69.0273 18.075 69.1334 18.1258 69.2395 18.1258C69.3457 18.1766 69.3987 18.2781 69.4518 18.3797C69.5048 18.4812 69.4518 18.6335 69.3987 18.7351L67.7539 21.1214V22.4923C67.7539 22.7461 67.5417 22.9492 67.2764 22.9492Z" fill="#5A6C7D"/>
</g>
</g>
</svg>
