<svg width="27" height="30" viewBox="0 0 27 30" fill="none" xmlns="http://www.w3.org/2000/svg">
<path d="M21.8234 9.67281C21.8234 8.28734 21.3731 7.16511 20.4726 6.30612C19.572 5.44713 18.3874 5.01763 16.9189 5.01763H10.2686V14.328H16.9189C18.3874 14.328 19.572 13.8985 20.4726 13.0395C21.3731 12.1805 21.8234 11.0583 21.8234 9.67281ZM26.7487 9.67281C26.7487 12.3468 25.8724 14.5289 24.1198 16.2191C22.3672 17.9094 20.1054 18.7545 17.3345 18.7545H10.2686V21.2068H20.7635C20.9575 21.2068 21.1168 21.2692 21.2415 21.3939C21.3662 21.5186 21.4285 21.6779 21.4285 21.8719V24.532C21.4285 24.7259 21.3662 24.8852 21.2415 25.0099C21.1168 25.1346 20.9575 25.197 20.7635 25.197H10.2686V29.1871C10.2686 29.3811 10.2028 29.5404 10.0712 29.6651C9.93956 29.7898 9.78369 29.8521 9.60358 29.8521H6.13299C5.93902 29.8521 5.77969 29.7898 5.655 29.6651C5.53031 29.5404 5.46796 29.3811 5.46796 29.1871V25.197H0.812791C0.618825 25.197 0.459496 25.1346 0.334804 25.0099C0.210112 24.8852 0.147766 24.7259 0.147766 24.532V21.8719C0.147766 21.6779 0.210112 21.5186 0.334804 21.3939C0.459496 21.2692 0.618825 21.2068 0.812791 21.2068H5.46796V18.7545H0.812791C0.618825 18.7545 0.459496 18.6922 0.334804 18.5675C0.210112 18.4428 0.147766 18.2835 0.147766 18.0895V14.993C0.147766 14.8129 0.210112 14.657 0.334804 14.5254C0.459496 14.3938 0.618825 14.328 0.812791 14.328H5.46796V1.25609C5.46796 1.06212 5.53031 0.902795 5.655 0.778103C5.77969 0.653411 5.93902 0.591064 6.13299 0.591064H17.3345C20.1054 0.591064 22.3672 1.4362 24.1198 3.12647C25.8724 4.81674 26.7487 6.99885 26.7487 9.67281Z" fill="white"/>
</svg>
