<svg width="24" height="24" viewBox="0 0 24 24" fill="none" xmlns="http://www.w3.org/2000/svg">
<path d="M9.74628 15.8245L12.7846 6.70937C12.8971 6.37167 12.7146 6.00665 12.3769 5.89408C12.0393 5.78154 11.6742 5.96403 11.5617 6.30172L8.52335 15.4168C8.41081 15.7545 8.5933 16.1195 8.93099 16.2321C8.99858 16.2546 9.06733 16.2653 9.13488 16.2653C9.40472 16.2654 9.65622 16.0946 9.74628 15.8245Z" fill="#5A6C7D" stroke="#5A6C7D" stroke-width="0.4"/>
<path d="M14.3 12.9967C15.3662 12.9967 16.2336 12.1293 16.2336 11.0631C16.2336 9.99693 15.3662 9.12952 14.3 9.12952C13.2339 9.12952 12.3665 9.99693 12.3665 11.0631C12.3665 12.1293 13.2339 12.9967 14.3 12.9967ZM14.3 10.4186C14.6554 10.4186 14.9446 10.7077 14.9446 11.0631C14.9446 11.4185 14.6554 11.7076 14.3 11.7076C13.9446 11.7076 13.6555 11.4185 13.6555 11.0631C13.6555 10.7077 13.9446 10.4186 14.3 10.4186Z" fill="#5A6C7D" stroke="#5A6C7D" stroke-width="0.4"/>
<path d="M7.00794 9.12952C5.94175 9.12952 5.07434 9.99693 5.07434 11.0631C5.07434 12.1293 5.94175 12.9967 7.00794 12.9967C8.07412 12.9967 8.94153 12.1293 8.94153 11.0631C8.94153 9.99693 8.07417 9.12952 7.00794 9.12952ZM7.00794 11.7076C6.65254 11.7076 6.36341 11.4185 6.36341 11.0631C6.36341 10.7077 6.65254 10.4186 7.00794 10.4186C7.36333 10.4186 7.65247 10.7077 7.65247 11.0631C7.65247 11.4185 7.36338 11.7076 7.00794 11.7076Z" fill="#5A6C7D" stroke="#5A6C7D" stroke-width="0.4"/>
<path d="M22.8711 8.99218L20.6235 5.99541L20.7112 5.38168C20.7399 5.18085 20.6724 4.97821 20.5289 4.83478L19.1616 3.46751L20.5289 2.10025C20.7806 1.84858 20.7806 1.44046 20.5289 1.18875C20.2772 0.937083 19.8691 0.937083 19.6174 1.18875L18.2501 2.55602L16.8829 1.18875C16.7394 1.04528 16.5368 0.977989 16.336 1.00643L9.95541 1.91793C9.81735 1.93765 9.68943 2.00163 9.59082 2.10025L1.6911 9.99996C0.769634 10.9214 0.769634 12.4207 1.6911 13.3422L8.37545 20.0266C8.51217 20.1633 8.66188 20.2792 8.8203 20.3754V20.6367C8.8203 21.9398 9.88047 23 11.1836 23H20.6367C21.9398 23 23 21.9398 23 20.6367V9.37889C23 9.23946 22.9547 9.10372 22.8711 8.99218ZM2.60259 12.4307C2.18374 12.0118 2.18374 11.3303 2.60259 10.9115L10.3504 3.16368L16.1992 2.32815L17.3386 3.46756L16.4271 4.37905L15.9713 3.92328C15.7197 3.67161 15.3115 3.67161 15.0598 3.92328C14.8081 4.17495 14.8081 4.58307 15.0598 4.83478L16.8829 6.65781C17.0087 6.78367 17.1737 6.84662 17.3386 6.84662C17.5035 6.84662 17.6685 6.78367 17.7943 6.65781C18.046 6.40615 18.046 5.99803 17.7943 5.74632L17.3386 5.29055L18.2501 4.37905L19.3895 5.51845L18.5539 11.3673L10.8061 19.1151C10.6032 19.318 10.3335 19.4297 10.0465 19.4297C9.7596 19.4297 9.48984 19.3179 9.28694 19.1151L2.60259 12.4307ZM21.7109 20.6367C21.7109 21.229 21.229 21.7109 20.6367 21.7109H11.1836C10.6179 21.7109 10.1534 21.2714 10.1126 20.716C10.6955 20.6999 11.2737 20.4705 11.7176 20.0266L19.6173 12.1268C19.7159 12.0282 19.7799 11.9003 19.7996 11.7622L20.3657 7.80009L21.7109 9.59374V20.6367Z" fill="#5A6C7D" stroke="#5A6C7D" stroke-width="0.4"/>
</svg>
