<svg width="25" height="23" viewBox="0 0 25 23" fill="none" xmlns="http://www.w3.org/2000/svg">
<path fill-rule="evenodd" clip-rule="evenodd" d="M7.67787 14.3358V14.3435V14.3358L23.6019 5.41789C24.5154 7.11498 24.9955 9.01036 25 10.9365C24.8935 14.1719 23.5299 17.2392 21.1973 19.4903C18.8648 21.7415 15.746 23 12.5 23C9.25405 23 6.13524 21.7415 3.80267 19.4903C1.47009 17.2392 0.106478 14.1719 0 10.9365C0 10.6402 0.014447 10.3487 0.0365624 10.0581L7.67787 14.3358ZM7.69231 12.8495L0.227884 8.67056C0.308735 8.25771 0.412114 7.84956 0.53752 7.44793L7.68268 11.4485V11.4562V11.4485L22.1904 3.32745C22.4541 3.64155 22.7018 3.96864 22.9327 4.30747L7.69231 12.8495ZM21.2885 2.34743L7.69231 9.95646L0.99904 6.20901C1.1633 5.83711 1.34654 5.47383 1.54806 5.12063L7.68268 8.55453V8.5622V8.55453L20.2856 1.50071C20.633 1.76419 20.9662 2.04587 21.2837 2.34457L21.2885 2.34743ZM7.6875 5.67489V5.66722L17.8115 0C18.2527 0.198686 18.682 0.42281 19.0971 0.671241L7.69231 7.06532L2.25672 4.02268C2.49902 3.69025 2.75739 3.37061 3.03175 3.06376L7.68268 5.66722L7.6875 5.67489Z" fill="#5A6C7D"/>
</svg>
