<svg width="14" height="14" viewBox="0 0 14 14" fill="none" xmlns="http://www.w3.org/2000/svg">
<g clip-path="url(#clip0_264_1177)">
<path d="M12.95 5.6L8.575 1.1375C8.4 0.9625 8.225 0.875 7.9625 0.875C7.7875 0.875 7.525 0.9625 7.35 1.1375L7.2625 1.225C7 1.575 7.0875 2.1 7.35 2.3625L10.15 5.25H7.9625C4.025 5.25 0.875 8.4 0.875 12.3375C0.875 12.775 1.225 13.125 1.6625 13.125C2.1 13.125 2.45 12.775 2.45 12.3375V12.1625C2.5375 9.1875 4.9 6.9125 7.875 6.9125H10.15L7.35 9.8C7 10.15 7 10.675 7.35 11.025C7.525 11.2 7.7 11.2875 7.9625 11.2875C8.225 11.2875 8.4 11.2 8.575 11.025L12.95 6.5625C13.2125 6.3 13.2125 5.8625 12.95 5.6Z" fill="#001A34"/>
</g>
<defs>
<clipPath id="clip0_264_1177">
<rect width="14" height="14" fill="white"/>
</clipPath>
</defs>
</svg>
