<svg width="17" height="25" viewBox="0 0 17 25" fill="none" xmlns="http://www.w3.org/2000/svg">
<path d="M15.8049 2.44384C14.6063 1.04773 12.4332 1.00741 12.1883 1.00741C12.1883 1.00741 7.24281 0.753486 3.93832 3.21895C2.07799 4.60698 0.91922 6.61053 0.530015 9.44869C0.128447 12.3765 1.19372 15.0677 3.61043 17.2313C5.40404 18.8371 7.29422 19.576 7.37093 19.6105C8.07678 19.9284 8.68738 19.789 8.83559 19.7549C8.83559 19.7549 10.5304 23.3146 10.5375 23.3288C11.0202 24.2903 12.0489 23.9928 12.378 23.8013C12.9587 23.4632 13.0024 22.9435 13.0062 22.9258C13.3584 22.8939 13.7055 22.7251 13.96 22.4275C14.2156 22.1287 14.326 21.748 14.2985 21.3843C14.635 21.2568 14.9199 20.9959 15.0667 20.6375C15.3474 19.952 15.0182 19.1659 14.3327 18.8851C14.3139 18.8774 10.4877 17.8027 10.4877 17.8027C10.5194 16.8513 9.78069 15.9849 9.06079 15.141C8.2507 14.1912 7.413 13.2093 7.413 12.0246C7.413 10.2211 8.49717 9.30659 10.6353 9.30659C11.4446 9.30659 12.7093 9.55686 12.9953 9.55686C12.9954 9.55686 12.9955 9.55686 12.9958 9.55686C14.3474 9.55665 15.3865 8.78871 16.0008 7.33605C16.3996 6.39279 16.4862 5.45984 16.4992 5.29014C16.6708 4.13812 16.4373 3.18052 15.8049 2.44384ZM3.66972 4.72112C3.54061 8.64612 6.22846 10.1515 6.64372 10.4283C6.33276 11.5038 6.36002 12.0539 6.36016 12.0686C5.3824 12.1618 3.05827 12.1728 1.50215 10.4836C1.5091 10.1902 1.43381 7.40032 3.66972 4.72112ZM10.1561 18.804L13.954 19.8695C14.0877 19.9369 14.1493 20.0974 14.0917 20.2383C14.0311 20.3862 13.8614 20.4573 13.7133 20.3967C13.444 20.2866 13.1364 20.4154 13.0262 20.6847C12.9396 20.8962 13.001 21.131 13.1618 21.2755C13.1649 21.2785 13.1679 21.2817 13.1712 21.2845C13.28 21.3775 13.2668 21.6036 13.1594 21.7426C12.9571 22.0046 12.7358 21.8263 12.734 21.8248C12.5676 21.6861 12.3257 21.6591 12.1287 21.7757C11.8783 21.9238 11.7953 22.2469 11.9435 22.4973C11.9829 22.5639 11.994 22.642 11.9747 22.7169C11.9555 22.792 11.9081 22.855 11.8415 22.8944C11.7749 22.9338 11.6968 22.9449 11.6218 22.9257C11.5527 22.9079 11.4937 22.8663 11.454 22.8075L9.76692 19.2601C9.94463 19.0981 10.0726 18.9307 10.1561 18.804ZM8.1336 15.6775C8.17568 15.7268 9.82606 17.3332 9.33199 18.1294C9.32819 18.1354 9.32791 18.1372 9.32489 18.1436C9.31253 18.1686 9.01562 18.7555 8.35332 18.7555C8.17055 18.7555 7.04508 18.7227 5.34363 17.2689C6.7599 17.0518 7.65547 16.2564 8.1336 15.6775ZM7.45297 14.8365C7.07093 15.3605 6.02946 16.4512 4.09517 16.2457C2.74338 14.97 1.91678 13.5447 1.62205 11.9871C3.62294 13.5592 6.29006 13.1378 6.52431 13.1128C6.71797 13.7473 7.06264 14.3141 7.45297 14.8365ZM7.19343 9.52743C6.84096 9.28812 4.01825 7.21994 4.86831 3.7199C6.05292 2.93911 7.56191 2.44377 9.42372 2.21338C7.74011 5.06411 9.5026 7.92404 9.7141 8.31149C8.61665 8.45703 7.76435 8.87307 7.19343 9.52743ZM15.4543 5.15226C15.4522 5.16806 15.2214 8.5029 12.9954 8.50325C12.9953 8.50325 12.9952 8.50325 12.9951 8.50325C12.7873 8.50325 12.563 8.47634 12.3291 8.42338C12.3016 8.41713 11.7092 8.28452 10.9119 8.25768C10.7103 7.95776 10.3313 7.32067 10.0954 6.4678C9.682 4.97385 9.87144 3.50651 10.6558 2.10204C11.1198 2.07458 12.1894 2.06102 12.1894 2.06102C12.2084 2.06102 14.0456 2.12066 15.0055 3.13016C15.3703 3.51382 15.5624 4.36465 15.4543 5.15226Z" fill="#5A6C7D"/>
<path d="M15.8049 2.44384C14.6063 1.04773 12.4332 1.00741 12.1883 1.00741C12.1883 1.00741 7.24281 0.753486 3.93832 3.21895C2.07799 4.60698 0.91922 6.61053 0.530015 9.44869C0.128447 12.3765 1.19372 15.0677 3.61043 17.2313C5.40404 18.8371 7.29422 19.576 7.37093 19.6105C8.07678 19.9284 8.68738 19.789 8.83559 19.7549C8.83559 19.7549 10.5304 23.3146 10.5375 23.3288C11.0202 24.2903 12.0489 23.9928 12.378 23.8013C12.9587 23.4632 13.0024 22.9435 13.0062 22.9258C13.3584 22.8939 13.7055 22.7251 13.96 22.4275C14.2156 22.1287 14.326 21.748 14.2985 21.3843C14.635 21.2568 14.9199 20.9959 15.0667 20.6375C15.3474 19.952 15.0182 19.1659 14.3327 18.8851C14.3139 18.8774 10.4877 17.8027 10.4877 17.8027C10.5194 16.8513 9.78069 15.9849 9.06079 15.141C8.2507 14.1912 7.413 13.2093 7.413 12.0246C7.413 10.2211 8.49717 9.30659 10.6353 9.30659C11.4446 9.30659 12.7093 9.55686 12.9953 9.55686C12.9954 9.55686 12.9955 9.55686 12.9958 9.55686C14.3474 9.55665 15.3865 8.78871 16.0008 7.33605C16.3996 6.39279 16.4862 5.45984 16.4992 5.29014C16.6708 4.13812 16.4373 3.18052 15.8049 2.44384ZM3.66972 4.72112C3.54061 8.64612 6.22846 10.1515 6.64372 10.4283C6.33276 11.5038 6.36002 12.0539 6.36016 12.0686C5.3824 12.1618 3.05827 12.1728 1.50215 10.4836C1.5091 10.1902 1.43381 7.40032 3.66972 4.72112ZM10.1561 18.804L13.954 19.8695C14.0877 19.9369 14.1493 20.0974 14.0917 20.2383C14.0311 20.3862 13.8614 20.4573 13.7133 20.3967C13.444 20.2866 13.1364 20.4154 13.0262 20.6847C12.9396 20.8962 13.001 21.131 13.1618 21.2755C13.1649 21.2785 13.1679 21.2817 13.1712 21.2845C13.28 21.3775 13.2668 21.6036 13.1594 21.7426C12.9571 22.0046 12.7358 21.8263 12.734 21.8248C12.5676 21.6861 12.3257 21.6591 12.1287 21.7757C11.8783 21.9238 11.7953 22.2469 11.9435 22.4973C11.9829 22.5639 11.994 22.642 11.9747 22.7169C11.9555 22.792 11.9081 22.855 11.8415 22.8944C11.7749 22.9338 11.6968 22.9449 11.6218 22.9257C11.5527 22.9079 11.4937 22.8663 11.454 22.8075L9.76692 19.2601C9.94463 19.0981 10.0726 18.9307 10.1561 18.804ZM8.1336 15.6775C8.17568 15.7268 9.82606 17.3332 9.33199 18.1294C9.32819 18.1354 9.32791 18.1372 9.32489 18.1436C9.31253 18.1686 9.01562 18.7555 8.35332 18.7555C8.17055 18.7555 7.04508 18.7227 5.34363 17.2689C6.7599 17.0518 7.65547 16.2564 8.1336 15.6775ZM7.45297 14.8365C7.07093 15.3605 6.02946 16.4512 4.09517 16.2457C2.74338 14.97 1.91678 13.5447 1.62205 11.9871C3.62294 13.5592 6.29006 13.1378 6.52431 13.1128C6.71797 13.7473 7.06264 14.3141 7.45297 14.8365ZM7.19343 9.52743C6.84096 9.28812 4.01825 7.21994 4.86831 3.7199C6.05292 2.93911 7.56191 2.44377 9.42372 2.21338C7.74011 5.06411 9.5026 7.92404 9.7141 8.31149C8.61665 8.45703 7.76435 8.87307 7.19343 9.52743ZM15.4543 5.15226C15.4522 5.16806 15.2214 8.5029 12.9954 8.50325C12.9953 8.50325 12.9952 8.50325 12.9951 8.50325C12.7873 8.50325 12.563 8.47634 12.3291 8.42338C12.3016 8.41713 11.7092 8.28452 10.9119 8.25768C10.7103 7.95776 10.3313 7.32067 10.0954 6.4678C9.682 4.97385 9.87144 3.50651 10.6558 2.10204C11.1198 2.07458 12.1894 2.06102 12.1894 2.06102C12.2084 2.06102 14.0456 2.12066 15.0055 3.13016C15.3703 3.51382 15.5624 4.36465 15.4543 5.15226Z" stroke="#5A6C7D" stroke-width="0.6"/>
<path d="M15.8049 2.44384C14.6063 1.04773 12.4332 1.00741 12.1883 1.00741C12.1883 1.00741 7.24281 0.753486 3.93832 3.21895C2.07799 4.60698 0.91922 6.61053 0.530015 9.44869C0.128447 12.3765 1.19372 15.0677 3.61043 17.2313C5.40404 18.8371 7.29422 19.576 7.37093 19.6105C8.07678 19.9284 8.68738 19.789 8.83559 19.7549C8.83559 19.7549 10.5304 23.3146 10.5375 23.3288C11.0202 24.2903 12.0489 23.9928 12.378 23.8013C12.9587 23.4632 13.0024 22.9435 13.0062 22.9258C13.3584 22.8939 13.7055 22.7251 13.96 22.4275C14.2156 22.1287 14.326 21.748 14.2985 21.3843C14.635 21.2568 14.9199 20.9959 15.0667 20.6375C15.3474 19.952 15.0182 19.1659 14.3327 18.8851C14.3139 18.8774 10.4877 17.8027 10.4877 17.8027C10.5194 16.8513 9.78069 15.9849 9.06079 15.141C8.2507 14.1912 7.413 13.2093 7.413 12.0246C7.413 10.2211 8.49717 9.30659 10.6353 9.30659C11.4446 9.30659 12.7093 9.55686 12.9953 9.55686C12.9954 9.55686 12.9955 9.55686 12.9958 9.55686C14.3474 9.55665 15.3865 8.78871 16.0008 7.33605C16.3996 6.39279 16.4862 5.45984 16.4992 5.29014C16.6708 4.13812 16.4373 3.18052 15.8049 2.44384ZM3.66972 4.72112C3.54061 8.64612 6.22846 10.1515 6.64372 10.4283C6.33276 11.5038 6.36002 12.0539 6.36016 12.0686C5.3824 12.1618 3.05827 12.1728 1.50215 10.4836C1.5091 10.1902 1.43381 7.40032 3.66972 4.72112ZM10.1561 18.804L13.954 19.8695C14.0877 19.9369 14.1493 20.0974 14.0917 20.2383C14.0311 20.3862 13.8614 20.4573 13.7133 20.3967C13.444 20.2866 13.1364 20.4154 13.0262 20.6847C12.9396 20.8962 13.001 21.131 13.1618 21.2755C13.1649 21.2785 13.1679 21.2817 13.1712 21.2845C13.28 21.3775 13.2668 21.6036 13.1594 21.7426C12.9571 22.0046 12.7358 21.8263 12.734 21.8248C12.5676 21.6861 12.3257 21.6591 12.1287 21.7757C11.8783 21.9238 11.7953 22.2469 11.9435 22.4973C11.9829 22.5639 11.994 22.642 11.9747 22.7169C11.9555 22.792 11.9081 22.855 11.8415 22.8944C11.7749 22.9338 11.6968 22.9449 11.6218 22.9257C11.5527 22.9079 11.4937 22.8663 11.454 22.8075L9.76692 19.2601C9.94463 19.0981 10.0726 18.9307 10.1561 18.804ZM8.1336 15.6775C8.17568 15.7268 9.82606 17.3332 9.33199 18.1294C9.32819 18.1354 9.32791 18.1372 9.32489 18.1436C9.31253 18.1686 9.01562 18.7555 8.35332 18.7555C8.17055 18.7555 7.04508 18.7227 5.34363 17.2689C6.7599 17.0518 7.65547 16.2564 8.1336 15.6775ZM7.45297 14.8365C7.07093 15.3605 6.02946 16.4512 4.09517 16.2457C2.74338 14.97 1.91678 13.5447 1.62205 11.9871C3.62294 13.5592 6.29006 13.1378 6.52431 13.1128C6.71797 13.7473 7.06264 14.3141 7.45297 14.8365ZM7.19343 9.52743C6.84096 9.28812 4.01825 7.21994 4.86831 3.7199C6.05292 2.93911 7.56191 2.44377 9.42372 2.21338C7.74011 5.06411 9.5026 7.92404 9.7141 8.31149C8.61665 8.45703 7.76435 8.87307 7.19343 9.52743ZM15.4543 5.15226C15.4522 5.16806 15.2214 8.5029 12.9954 8.50325C12.9953 8.50325 12.9952 8.50325 12.9951 8.50325C12.7873 8.50325 12.563 8.47634 12.3291 8.42338C12.3016 8.41713 11.7092 8.28452 10.9119 8.25768C10.7103 7.95776 10.3313 7.32067 10.0954 6.4678C9.682 4.97385 9.87144 3.50651 10.6558 2.10204C11.1198 2.07458 12.1894 2.06102 12.1894 2.06102C12.2084 2.06102 14.0456 2.12066 15.0055 3.13016C15.3703 3.51382 15.5624 4.36465 15.4543 5.15226Z" stroke="#5A6C7D" stroke-width="0.6"/>
</svg>
