<svg width="49" height="16" viewBox="0 0 49 16" fill="none" xmlns="http://www.w3.org/2000/svg">
<path fill-rule="evenodd" clip-rule="evenodd" d="M45.2694 15.7965C45.2694 15.7965 44.9128 13.6199 44.7933 13.0744H39.6371C39.4948 13.5013 38.7824 15.7965 38.7824 15.7965H34.5757L40.541 1.57012C40.6891 1.14729 40.977 0.787613 41.3571 0.550451C41.7372 0.313288 42.1867 0.21282 42.6316 0.265626H45.7446L49 15.7965H45.2694ZM43.2017 5.78923L42.9162 4.46101C42.7264 5.05397 42.3689 5.97898 42.3935 5.95526C42.3935 5.95526 41.1102 9.39258 40.8019 10.293H44.1284C43.9642 9.50844 43.2017 5.78923 43.2017 5.78923ZM34.552 3.84617C33.6127 3.42179 32.5885 3.21892 31.5584 3.2532C29.9659 3.2532 29.2526 3.9164 29.2289 4.58051C29.2289 5.31578 30.0854 5.78924 31.5092 6.49622C33.815 7.58635 34.884 8.93737 34.8603 10.7144C34.8366 13.9145 32.1039 15.9999 27.8735 15.9999C26.3451 16.005 24.8292 15.7241 23.4041 15.1716L23.9514 11.6869L24.4986 11.9478C25.6654 12.5214 26.9531 12.8058 28.2529 12.777C29.4177 12.777 30.6527 12.3026 30.6773 11.2599C30.6773 10.573 30.1547 10.074 28.5858 9.31686C27.0653 8.5816 25.045 7.34916 25.0687 5.12056C25.0924 2.11017 27.8726 0.00016443 31.8412 0.00016443C33.0739 -0.00683225 34.2976 0.209512 35.4532 0.638729L34.9059 4.0058L34.552 3.84617ZM16.8733 15.7965L19.3917 0.265626H23.405L20.8875 15.7965H16.8742H16.8733ZM7.20483 15.7965L3.84003 3.15013C4.38652 3.42567 4.90413 3.75509 5.38516 4.13351C6.84697 5.32811 8.09731 6.76028 9.0838 8.36996L9.15038 8.70475L9.57818 10.8385L13.5222 0.265626H17.7763L11.4553 15.7965H7.20574H7.20483ZM8.84665 7.13022L9.01265 7.97861L8.84665 7.13022Z" fill="#5A6C7D"/>
<path opacity="0.35" fill-rule="evenodd" clip-rule="evenodd" d="M5.3815 4.13347C4.90069 3.75474 4.38305 3.4253 3.83637 3.15009L3.60744 2.28984C2.4713 1.63826 1.25985 1.12789 0 0.77005V0.289307H6.16959C6.53872 0.290207 6.89644 0.417377 7.18332 0.649701C7.4702 0.882025 7.66898 1.20551 7.74663 1.56644L9.08198 8.36628C8.09461 6.75775 6.84365 5.32683 5.3815 4.13347Z" fill="#5A6C7D"/>
</svg>
