<svg width="16" height="10" viewBox="0 0 16 10" fill="none" xmlns="http://www.w3.org/2000/svg">
<path fill-rule="evenodd" clip-rule="evenodd" d="M8.99402 1.76989V5.0269C8.99049 5.08071 8.99978 5.13458 9.02118 5.18407C9.04258 5.23356 9.07545 5.27725 9.11707 5.31154C9.15868 5.34583 9.20782 5.36974 9.2605 5.38127C9.31317 5.39281 9.36785 5.39164 9.41998 5.37789C9.71998 5.35689 10.398 2.57788 10.699 1.97188C10.8587 1.63019 11.1154 1.34298 11.437 1.14589C11.5383 1.05411 11.6676 0.999149 11.804 0.989887H14.682C14.7597 1.00296 14.8328 1.03561 14.8943 1.08474C14.9559 1.13386 15.0039 1.19785 15.0339 1.27068C15.0639 1.34351 15.0749 1.42275 15.0659 1.501C15.0568 1.57924 15.0279 1.65388 14.982 1.71788C14.757 2.21788 12.827 5.32791 12.727 5.45391C12.6066 5.6165 12.5255 5.80473 12.49 6.00389C12.5293 6.23927 12.638 6.45758 12.802 6.63091C13.002 6.85691 14.618 8.63591 14.769 8.78591C14.9113 8.94931 15.0065 9.14845 15.044 9.3619C15.008 9.54386 14.9069 9.70647 14.7596 9.81929C14.6124 9.93212 14.4291 9.98743 14.244 9.9749C13.618 9.9749 12.078 9.9749 11.902 9.9749C11.5502 9.8518 11.2266 9.65971 10.95 9.4099C10.725 9.2099 9.89099 8.25789 9.76599 8.13289C9.72368 8.08201 9.66962 8.04222 9.60846 8.01696C9.5473 7.99169 9.48086 7.98172 9.41498 7.9879C9.26498 7.9879 8.97998 8.00289 8.99298 8.57289C9.02871 8.96778 8.94587 9.36436 8.755 9.7119C8.65737 9.80552 8.54165 9.87821 8.41492 9.92549C8.28818 9.97278 8.1531 9.99367 8.01801 9.9869C6.99512 10.0489 5.97789 9.79513 5.104 9.25991C3.53 8.28291 1.73799 5.67191 0.903992 4.00591C0.406521 3.17878 0.0991449 2.25139 0.00402832 1.29088C0.0540283 1.11488 0.0539805 0.990894 0.22998 0.990894C0.40598 0.990894 2.61902 0.990894 2.83002 0.990894C2.97631 1.063 3.09834 1.1763 3.18103 1.31688C3.25603 1.41688 3.82799 3.12889 4.00299 3.42989C4.17799 3.73089 5.04097 5.3799 5.50897 5.3799C5.66437 5.34939 5.80141 5.25868 5.8902 5.12755C5.97899 4.99642 6.01233 4.83551 5.98297 4.67989C5.98297 4.27989 5.98297 2.7009 5.98297 2.4999C5.79274 2.05649 5.44407 1.69994 5.005 1.4999C5.11435 1.35466 5.25381 1.23479 5.41382 1.14849C5.57382 1.06218 5.75058 1.01149 5.93201 0.999896C6.53201 0.974896 8.037 0.974883 8.362 1.02388C8.53644 1.05791 8.69408 1.15034 8.80896 1.28594C8.92384 1.42154 8.98912 1.59223 8.99402 1.76989Z" fill="#5A6C7D"/>
</svg>
