<svg width="20" height="23" viewBox="0 0 20 23" fill="none" xmlns="http://www.w3.org/2000/svg">
<path fill-rule="evenodd" clip-rule="evenodd" d="M18 23H2C1.46957 23 0.960858 22.8061 0.585785 22.4611C0.210712 22.116 0 21.648 0 21.16V11.04C0.000559871 10.5734 0.195216 10.1247 0.544006 9.78603V9.7566L13 0H14V14.72L2 22.08L17 17.48V9.2H20V23H18ZM9.05099 8.59464C9.21589 8.4624 9.40965 8.36416 9.61923 8.30652C9.82882 8.24887 10.0494 8.23315 10.2661 8.26043C10.4828 8.28771 10.6907 8.35735 10.8758 8.46466C11.0608 8.57197 11.2188 8.71447 11.339 8.8826C11.4962 9.29041 11.4921 9.73614 11.3275 10.1415C11.1629 10.5468 10.8483 10.8858 10.439 11.0989C10.2741 11.2311 10.0804 11.3294 9.87079 11.387C9.66121 11.4447 9.44064 11.4604 9.22391 11.4331C9.00718 11.4058 8.79928 11.3362 8.61423 11.2289C8.42917 11.1215 8.27123 10.9791 8.151 10.8109C7.99383 10.4031 7.99791 9.95739 8.16251 9.55206C8.3271 9.14674 8.64168 8.80774 9.05099 8.59464Z" fill="#5A6C7D"/>
<path opacity="0.4" fill-rule="evenodd" clip-rule="evenodd" d="M14 9.19995H17V17.48L2 22.08L14 14.72V9.19995Z" fill="#5A6C7D"/>
</svg>
